<svg width="22" height="16" viewBox="0 0 22 16" fill="none" xmlns="http://www.w3.org/2000/svg">
  <path d="M13.7176 1.02164L13.7177 1.02164C13.8728 1.10076 13.9904 1.23831 14.0442 1.4041M13.7176 1.02164L14.0442 1.4041M13.7176 1.02164C13.5622 0.942431 13.382 0.928329 13.2161 0.982207L13.2161 0.982208M13.7176 1.02164L13.2161 0.982208M14.0442 1.4041L17.7774 12.8936C17.8896 13.2387 17.7006 13.6094 17.3554 13.7216L14.8155 14.5468C14.7494 14.5683 14.6808 14.579 14.6124 14.579C14.5097 14.579 14.4073 14.5549 14.3141 14.5074C14.1588 14.4283 14.0413 14.2907 13.9875 14.125M14.0442 1.4041L13.9875 14.125M13.9875 14.125L14.035 14.1095L13.9875 14.125L13.9875 14.125ZM13.9875 14.125L13.8717 13.7684L12.6051 13.7618C12.312 14.9916 11.2048 15.9093 9.8863 15.9093C8.55762 15.9093 7.44294 14.9775 7.16042 13.7331L5.89926 13.7265M13.9875 14.125L5.89926 13.7265M13.2161 0.982208L10.6762 1.80758C10.3311 1.91973 10.1421 2.29043 10.2544 2.63558L10.3701 2.99203L3.94497 7.71161L1.40406 8.53717L1.40406 8.53717M13.2161 0.982208L1.40406 8.53717M1.40406 8.53717C1.23829 8.59105 1.10073 8.70854 1.02162 8.8638M1.40406 8.53717L1.02162 8.8638M3.35876 14.552L3.35875 14.552C3.29137 14.5739 3.22293 14.5843 3.1555 14.5843C2.87859 14.5843 2.62096 14.4079 2.53069 14.1302L0.982186 9.36524L3.35876 14.552ZM3.35876 14.552L5.89926 13.7265M3.35876 14.552L5.89926 13.7265M1.02162 8.8638C0.942494 9.01906 0.928302 9.19947 0.982185 9.36524L1.02162 8.8638ZM15.0342 13.0939L16.3243 12.6745L12.9973 2.43509L11.7073 2.85435L13.3708 7.97412L14.9747 12.9103C14.9747 12.9104 14.9747 12.9105 14.9748 12.9106L14.9748 12.9107L15.0342 13.0939ZM15.0342 13.0939L14.9758 12.9143L15.0342 13.0939ZM12.5654 13.7116L13.9081 13.7186L7.20068 13.6833C7.46361 14.9248 8.56778 15.8593 9.8863 15.8593C11.1948 15.8593 12.2917 14.9388 12.5654 13.7116ZM3.57746 13.099L2.43523 9.58394L3.8267 9.13181L4.96877 12.6469L3.57746 13.099ZM9.88622 14.595C9.29363 14.595 8.78175 14.2448 8.54519 13.7404L11.2212 13.7545C10.9818 14.2515 10.4734 14.595 9.88622 14.595ZM6.27497 12.4141L5.6476 10.4833L5.02023 8.55239L10.7977 4.30865L12.5742 9.77574L13.4437 12.452L6.27497 12.4141Z" fill="white" stroke="#4C0497" stroke-width="0.1"/>
  <path d="M16.0184 4.41516L16.0184 4.41515C15.6951 4.25034 15.5666 3.85458 15.7315 3.53118L16.0184 4.41516ZM16.0184 4.41516C16.114 4.46383 16.2159 4.4869 16.3164 4.4869C16.5554 4.4869 16.7862 4.3559 16.9023 4.12803C16.9023 4.12803 16.9023 4.12803 16.9023 4.12803L17.992 1.99014C18.1569 1.66682 18.0283 1.27105 17.705 1.10624L17.705 1.10624C17.3817 0.941528 16.986 1.06987 16.8211 1.39328C16.8211 1.39328 16.8211 1.39328 16.8211 1.39328L15.7315 3.53118L16.0184 4.41516Z" fill="white" stroke="#4C0497" stroke-width="0.1"/>
  <path d="M20.627 10.0996L20.627 10.0996C20.9504 10.2644 21.0791 10.6601 20.9142 10.9834C20.9142 10.9834 20.9142 10.9834 20.9142 10.9834L20.8697 10.9607C20.7624 11.1712 20.5492 11.2924 20.3282 11.2924C20.2355 11.2924 20.1415 11.2711 20.0531 11.2262L20.627 10.0996ZM20.627 10.0996L18.4888 9.01045L18.4888 9.01044C18.1654 8.84582 17.7697 8.97434 17.605 9.29773L20.627 10.0996Z" fill="white" stroke="#4C0497" stroke-width="0.1"/>
</svg>