

<svg width="18" height="15" viewBox="0 0 18 15" fill="none" xmlns="http://www.w3.org/2000/svg">
<path fill-rule="evenodd" clip-rule="evenodd" d="M9.00007 4.19971C7.27694 4.19971 5.88007 5.59658 5.88007 7.31971C5.88007 9.04286 7.27694 10.4397 9.00007 10.4397C10.7232 10.4397 12.1201 9.04286 12.1201 7.31971C12.1201 5.59658 10.7232 4.19971 9.00007 4.19971ZM7.12807 7.31971C7.12807 6.28586 7.96622 5.44771 9.00007 5.44771C10.0339 5.44771 10.8721 6.28586 10.8721 7.31971C10.8721 8.35355 10.0339 9.19171 9.00007 9.19171C7.96622 9.19171 7.12807 8.35355 7.12807 7.31971Z" fill="#707070" fill-opacity="0.3"/>
<path fill-rule="evenodd" clip-rule="evenodd" d="M9 0C5.22073 0 2.67513 2.26226 1.19769 4.18023L1.17104 4.21481C0.836908 4.64843 0.529166 5.0478 0.320392 5.52003C0.0968148 6.02574 0 6.57687 0 7.32C0 8.06313 0.0968148 8.61426 0.320392 9.11997C0.529166 9.59221 0.836908 9.99159 1.17105 10.4252L1.19769 10.4597C2.67513 12.3777 5.22073 14.64 9 14.64C12.7792 14.64 15.3249 12.3777 16.8023 10.4597L16.8289 10.4252C17.1631 9.99159 17.4708 9.59221 17.6796 9.11997C17.9032 8.61426 18 8.06313 18 7.32C18 6.57687 17.9032 6.02574 17.6796 5.52003C17.4708 5.0478 17.1631 4.64843 16.8289 4.2148L16.8023 4.18023C15.3249 2.26226 12.7792 0 9 0ZM2.19284 4.94564C3.557 3.17472 5.77705 1.25486 9 1.25486C12.2229 1.25486 14.443 3.17472 15.8072 4.94564C16.1744 5.42231 16.3895 5.70717 16.5309 6.02708C16.6631 6.32615 16.7442 6.69165 16.7442 7.32C16.7442 7.94835 16.6631 8.31385 16.5309 8.61292C16.3895 8.93283 16.1744 9.21768 15.8072 9.69436C14.443 11.4653 12.2229 13.3851 9 13.3851C5.77705 13.3851 3.557 11.4653 2.19284 9.69436C1.82565 9.21768 1.61057 8.93283 1.4691 8.61292C1.33689 8.31385 1.25581 7.94835 1.25581 7.32C1.25581 6.69165 1.33689 6.32615 1.4691 6.02708C1.61057 5.70717 1.82564 5.42231 2.19284 4.94564Z" fill="#707070" fill-opacity="0.3"/>
</svg>
