<svg xmlns="http://www.w3.org/2000/svg" xmlns:xlink="http://www.w3.org/1999/xlink" width="246.464" height="56" viewBox="0 0 246.464 56">
  <defs>
    <clipPath id="clip-path">
      <rect id="Rectangle_2" data-name="Rectangle 2" width="66" height="56" transform="translate(-0.338 -0.18)" fill="#fff"/>
    </clipPath>
  </defs>
  <g id="Group_46885" data-name="Group 46885" transform="translate(-92 -311)">
    <g id="Group_1" data-name="Group 1" transform="translate(92.338 311.18)" clip-path="url(#clip-path)">
      <path id="Path_1" data-name="Path 1" d="M10.412,4.809l-1.563.848,4.272,7.875,1.563-.848Z" transform="translate(6.919 3.56)" fill="#f90"/>
      <path id="Path_2" data-name="Path 2" d="M14.242,3.211A4.471,4.471,0,1,1,11.6,1.079,4.447,4.447,0,0,1,14.242,3.211Z" transform="translate(4.616 0.514)" fill="#6f62b1"/>
      <path id="Path_3" data-name="Path 3" d="M28.03,4.809l1.563.848-4.272,7.875-1.563-.848Z" transform="translate(18.52 3.56)" fill="#f90"/>
      <path id="Path_4" data-name="Path 4" d="M25.537,3.211a4.471,4.471,0,1,0,2.646-2.132A4.444,4.444,0,0,0,25.537,3.211Z" transform="translate(19.485 0.514)" fill="#6f62b1"/>
      <path id="Path_5" data-name="Path 5" d="M34.685,33.406H13.7A2.7,2.7,0,0,1,13.7,28H34.685a2.7,2.7,0,0,1,0,5.406Z" transform="translate(8.592 21.606)" fill="#f90"/>
      <path id="Path_6" data-name="Path 6" d="M5.406,28.491A5.406,5.406,0,1,0,0,23.086,5.405,5.405,0,0,0,5.406,28.491Z" transform="translate(0.033 13.575)" fill="#6f62b1"/>
      <path id="Path_7" data-name="Path 7" d="M36.146,28.291a5.406,5.406,0,1,0-5.406-5.406A5.406,5.406,0,0,0,36.146,28.291Z" transform="translate(23.953 13.42)" fill="#6f62b1"/>
      <path id="Path_8" data-name="Path 8" d="M30.835,7.008s22.013-.267,25.5,18.795S41.2,45.149,35.849,45.522c-2.436.16-7.628.178-12.2.089C13.427,45.433,6.314,43.477,3.878,34.053a17.658,17.658,0,0,1-.533-3.361C2.758,20.362,9.675,6.421,30.835,7.008Z" transform="translate(2.609 5.257)" fill="#6f62b1"/>
      <path id="Path_9" data-name="Path 9" d="M12.433,28.6l32.006.5a6.073,6.073,0,0,0,.178-12.145l-32.006-.5A6.073,6.073,0,1,0,12.433,28.6Z" transform="translate(5.044 12.626)" fill="#fff"/>
      <path id="Path_10" data-name="Path 10" d="M24.076,20.86a1.95,1.95,0,1,0,3-2,1.938,1.938,0,0,0-1.455-.293,1.955,1.955,0,0,0-1.547,2.294Z" transform="translate(18.739 14.237)" fill="#6f62b1"/>
      <path id="Path_11" data-name="Path 11" d="M11.517,20.643a1.956,1.956,0,1,0,1.529-2.276,1.92,1.92,0,0,0-1.529,2.276Z" transform="translate(8.964 14.079)" fill="#6f62b1"/>
      <path id="Path_12" data-name="Path 12" d="M24.352,19.633a.888.888,0,0,1,.141.482,2.88,2.88,0,0,1-.261,1.33,4.107,4.107,0,0,1-1.264,1.644,3.965,3.965,0,0,1-2.4.814,3.84,3.84,0,0,1-2.362-.936,4.019,4.019,0,0,1-1.186-1.659,2.919,2.919,0,0,1-.2-1.33c.039-.336.057-.494.163-.482a14.1,14.1,0,0,0,.588,1.572,4,4,0,0,0,1.121,1.293,3.306,3.306,0,0,0,1.888.7,3.555,3.555,0,0,0,1.86-.608,3.808,3.808,0,0,0,1.184-1.259C24.219,20.316,24.226,19.637,24.352,19.633Z" transform="translate(13.107 14.987)" fill="#f90"/>
      <path id="Path_13" data-name="Path 13" d="M33.536,17.18a2.486,2.486,0,0,1,.178.462,3.14,3.14,0,0,0,.16.569,6.786,6.786,0,0,1,.2.765,17.331,17.331,0,0,1,.267,2.009,16.711,16.711,0,0,1,0,2.489,18.535,18.535,0,0,1-.409,2.454,13.735,13.735,0,0,1-.569,1.938c-.089.267-.213.5-.3.711l-.267.533-.249.427a1.786,1.786,0,0,1,.2-.462c0-.142.142-.32.231-.533s.2-.445.285-.729a17.993,17.993,0,0,0,.587-1.92,18.757,18.757,0,0,0,.409-2.436,19.086,19.086,0,0,0,0-2.454A17.629,17.629,0,0,0,34,18.994a7.092,7.092,0,0,0-.16-.765,3.777,3.777,0,0,0-.142-.569A2.914,2.914,0,0,1,33.536,17.18Z" transform="translate(25.353 13.186)" fill="#f90"/>
      <path id="Path_14" data-name="Path 14" d="M4.14,17.25a2.863,2.863,0,0,0-.16.462,5.541,5.541,0,0,0-.178.569,6.4,6.4,0,0,1-.178.765,16.512,16.512,0,0,0-.285,2.009,16.835,16.835,0,0,0,0,2.489A16.409,16.409,0,0,0,3.749,26a17.532,17.532,0,0,0,.622,1.92c.107.285.231.516.32.729a4.561,4.561,0,0,0,.267.516,2.256,2.256,0,0,0,.249.445,1.53,1.53,0,0,0-.2-.462l-.231-.551c-.089-.213-.2-.445-.285-.711a17.785,17.785,0,0,1-.6-1.92A22.537,22.537,0,0,1,3.5,23.527a19.364,19.364,0,0,1,0-2.472,17.777,17.777,0,0,1,.249-1.992,4.508,4.508,0,0,1,.142-.765l.142-.569A1.619,1.619,0,0,0,4.14,17.25Z" transform="translate(2.596 13.241)" fill="#f90"/>
    </g>
    <path id="Path_16" data-name="Path 16" d="M105.693,14.476h-1.506l-.013-.924h1.289a1.87,1.87,0,0,0,.595-.091,1.093,1.093,0,0,0,.441-.28.634.634,0,0,0,.168-.448,1.056,1.056,0,0,0-.119-.546.657.657,0,0,0-.385-.287,2.391,2.391,0,0,0-.735-.091H104.5v5.035h-1.029V10.891h1.954a3.158,3.158,0,0,1,1.205.21,1.648,1.648,0,0,1,.784.609,1.74,1.74,0,0,1,.28,1.008,1.251,1.251,0,0,1-.182.672,1.514,1.514,0,0,1-.511.5,3.068,3.068,0,0,1-.833.343c-.014,0-.031.016-.049.049s-.029.042-.042.042a.851.851,0,0,0-.154.105.125.125,0,0,1-.063.035A1.082,1.082,0,0,1,105.693,14.476Zm-.07,0,.147-.749a1.849,1.849,0,0,1,1.491.49,1.868,1.868,0,0,1,.407,1.232v.392a4.2,4.2,0,0,0,.028.5,1.618,1.618,0,0,0,.091.392v.112H106.73a1.717,1.717,0,0,1-.085-.518q-.007-.336-.007-.49v-.378a1.018,1.018,0,0,0-.232-.735A1.044,1.044,0,0,0,105.623,14.476Zm-4.237-.525a4.556,4.556,0,0,0,.323,1.723,4.441,4.441,0,0,0,.889,1.4,4.158,4.158,0,0,0,1.316.931,3.964,3.964,0,0,0,1.61.329,3.9,3.9,0,0,0,1.6-.329,4.158,4.158,0,0,0,1.316-.931,4.461,4.461,0,0,0,.889-1.4,4.77,4.77,0,0,0,0-3.445,4.376,4.376,0,0,0-.889-1.393,4.065,4.065,0,0,0-1.316-.924,3.9,3.9,0,0,0-1.6-.329,3.964,3.964,0,0,0-1.61.329,4.065,4.065,0,0,0-1.316.924,4.357,4.357,0,0,0-.889,1.393A4.522,4.522,0,0,0,101.386,13.951Zm-.833,0a5.47,5.47,0,0,1,.385-2.066,5.107,5.107,0,0,1,1.071-1.66,4.9,4.9,0,0,1,1.583-1.106,4.729,4.729,0,0,1,1.932-.4,4.678,4.678,0,0,1,1.926.4,4.8,4.8,0,0,1,1.583,1.106,5.107,5.107,0,0,1,1.071,1.66,5.729,5.729,0,0,1,0,4.131,5.188,5.188,0,0,1-1.071,1.667,4.892,4.892,0,0,1-1.583,1.113,4.678,4.678,0,0,1-1.926.4,4.729,4.729,0,0,1-1.932-.4,4.99,4.99,0,0,1-1.583-1.113,5.189,5.189,0,0,1-1.071-1.667A5.47,5.47,0,0,1,100.553,13.951Z" transform="translate(227.974 314.492)" fill="#6f62b1"/>
    <text id="Shopping" transform="translate(172 356)" fill="#6f62b1" font-size="30" font-family="DMSans-Bold, DM Sans" font-weight="700"><tspan x="0" y="0">Shopping</tspan></text>
  </g>
</svg>
