<svg width="46" height="50" viewBox="0 0 46 50" fill="none" xmlns="http://www.w3.org/2000/svg">
    <path d="M45.4844 33.6416C45.4844 37.4619 43.3078 40.9484 39.8756 42.6259L27.1336 48.8537C24.3627 50.208 21.122 50.208 18.3512 48.8537L5.60915 42.6259C2.17692 40.9484 0.000352136 37.4619 0.00035247 33.6416L0.000353964 16.5514C0.000354295 12.7636 2.14038 9.30101 5.52821 7.60709L18.2702 1.23608C21.0855 -0.171564 24.3992 -0.171568 27.2145 1.23607L39.9565 7.60709C43.3444 9.30101 45.4844 12.7636 45.4844 16.5514L45.4844 33.6416Z" fill="url(#paint0_linear_0_1)"/>
    <path d="M27.8691 25.0013L22.7416 25.0013M17.614 25.0013L22.7416 25.0013M22.7416 25.0013L22.7416 30.1289M22.7416 25.0013L22.7416 19.8738" stroke="white" stroke-width="1.5" stroke-linecap="round" stroke-linejoin="round"/>
    <defs>
        <linearGradient id="paint0_linear_0_1" x1="22.7424" y1="51" x2="22.7424" y2="-0.999998" gradientUnits="userSpaceOnUse">
            <stop stop-color="#4C0497"/>
            <stop offset="1" stop-color="#4C0497" stop-opacity="0.51"/>
        </linearGradient>
    </defs>
</svg>