<svg width="22" height="16" viewBox="0 0 22 16" fill="none" xmlns="http://www.w3.org/2000/svg">
  <path d="M13.7176 1.02164L13.7177 1.02164C13.8728 1.10076 13.9904 1.23831 14.0442 1.4041M13.7176 1.02164L14.0442 1.4041M13.7176 1.02164C13.5622 0.942431 13.382 0.928329 13.2161 0.982207L13.2161 0.982208M13.7176 1.02164L13.2161 0.982208M14.0442 1.4041L17.7774 12.8936C17.8896 13.2387 17.7006 13.6094 17.3554 13.7216L14.8155 14.5468C14.7494 14.5683 14.6808 14.579 14.6124 14.579C14.5097 14.579 14.4073 14.5549 14.3141 14.5074C14.1588 14.4283 14.0413 14.2907 13.9875 14.125M14.0442 1.4041L13.9875 14.125M13.9875 14.125L14.035 14.1095L13.9875 14.125L13.9875 14.125ZM13.9875 14.125L13.8717 13.7684L12.6051 13.7618C12.312 14.9916 11.2048 15.9093 9.8863 15.9093C8.55762 15.9093 7.44294 14.9775 7.16042 13.7331L5.89926 13.7265M13.9875 14.125L5.89926 13.7265M13.2161 0.982208L10.6762 1.80758C10.3311 1.91973 10.1421 2.29043 10.2544 2.63558L10.3701 2.99203L3.94497 7.71161L1.40406 8.53717L1.40406 8.53717M13.2161 0.982208L1.40406 8.53717M1.40406 8.53717C1.23829 8.59105 1.10073 8.70854 1.02162 8.8638M1.40406 8.53717L1.02162 8.8638M3.35876 14.552L3.35875 14.552C3.29137 14.5739 3.22293 14.5843 3.1555 14.5843C2.87859 14.5843 2.62096 14.4079 2.53069 14.1302L0.982186 9.36524L3.35876 14.552ZM3.35876 14.552L5.89926 13.7265M3.35876 14.552L5.89926 13.7265M1.02162 8.8638C0.942494 9.01906 0.928302 9.19947 0.982185 9.36524L1.02162 8.8638ZM15.0342 13.0939L16.3243 12.6745L12.9973 2.43509L11.7073 2.85435L13.3708 7.97412L14.9747 12.9103C14.9747 12.9104 14.9747 12.9105 14.9748 12.9106L14.9748 12.9107L15.0342 13.0939ZM15.0342 13.0939L14.9758 12.9143L15.0342 13.0939ZM12.5654 13.7116L13.9081 13.7186L7.20068 13.6833C7.46361 14.9248 8.56778 15.8593 9.8863 15.8593C11.1948 15.8593 12.2917 14.9388 12.5654 13.7116ZM3.57746 13.099L2.43523 9.58394L3.8267 9.13181L4.96877 12.6469L3.57746 13.099ZM9.88622 14.595C9.29363 14.595 8.78175 14.2448 8.54519 13.7404L11.2212 13.7545C10.9818 14.2515 10.4734 14.595 9.88622 14.595ZM6.27497 12.4141L5.6476 10.4833L5.02023 8.55239L10.7977 4.30865L12.5742 9.77574L13.4437 12.452L6.27497 12.4141Z" fill="url(#paint0_linear_0_1)" stroke="url(#paint1_linear_0_1)" stroke-width="0.1"/>
  <path d="M16.0185 4.41467L16.0185 4.41466C15.6952 4.24985 15.5667 3.85409 15.7316 3.5307L16.0185 4.41467ZM16.0185 4.41467C16.1141 4.46334 16.216 4.48641 16.3165 4.48641C16.5555 4.48641 16.7863 4.35541 16.9024 4.12754C16.9024 4.12754 16.9024 4.12754 16.9024 4.12754L17.9921 1.98965C18.157 1.66633 18.0284 1.27056 17.7051 1.10576L17.7051 1.10575C17.3818 0.94104 16.9861 1.06938 16.8212 1.39279C16.8212 1.39279 16.8212 1.39279 16.8212 1.39279L15.7316 3.53069L16.0185 4.41467Z" fill="url(#paint2_linear_0_1)" stroke="url(#paint3_linear_0_1)" stroke-width="0.1"/>
  <path d="M20.627 10.0992L20.627 10.0992C20.9504 10.264 21.0791 10.6596 20.9142 10.983C20.9142 10.983 20.9142 10.983 20.9142 10.983L20.8697 10.9603C20.7624 11.1707 20.5492 11.2919 20.3282 11.2919C20.2355 11.2919 20.1415 11.2706 20.0531 11.2257L20.627 10.0992ZM20.627 10.0992L18.4888 9.00996L18.4888 9.00995C18.1654 8.84533 17.7697 8.97385 17.605 9.29725L20.627 10.0992Z" fill="url(#paint4_linear_0_1)" stroke="url(#paint5_linear_0_1)" stroke-width="0.1"/>
  <path d="M21.0177 5.49006C20.9055 5.14481 20.5348 4.9563 20.1897 5.06817L20.1896 5.06818L17.9078 5.80969L17.9078 5.80969C17.5627 5.92193 17.3738 6.29262 17.486 6.63776L17.486 6.63776C17.5763 6.91549 17.8339 7.09195 18.1108 7.09195C18.1782 7.09195 18.2467 7.08151 18.314 7.05964L18.3141 7.05963L20.5959 6.31813L20.5959 6.31812C20.9409 6.20598 21.1299 5.83528 21.0177 5.49006ZM21.0177 5.49006L20.9701 5.50551M21.0177 5.49006C21.0177 5.49006 21.0177 5.49005 21.0177 5.49005L20.9701 5.50551M20.9701 5.50551C21.0738 5.82445 20.8992 6.16696 20.5804 6.27057L18.2986 7.01208C18.2363 7.03232 18.1731 7.04195 18.1108 7.04195C17.8549 7.04195 17.6169 6.87884 17.5335 6.6223C17.4299 6.30344 17.6045 5.96094 17.9232 5.85724L20.2051 5.11573C20.524 5.01236 20.8665 5.18656 20.9701 5.50551Z" fill="url(#paint6_linear_0_1)" stroke="url(#paint7_linear_0_1)" stroke-width="0.1"/>
  <defs>
    <linearGradient id="paint0_linear_0_1" x1="9.37986" y1="1" x2="9.37986" y2="15.8593" gradientUnits="userSpaceOnUse">
      <stop stop-color="#4C0497"/>
      <stop offset="1" stop-color="#4C0497" stop-opacity="0.5"/>
    </linearGradient>
    <linearGradient id="paint1_linear_0_1" x1="9.37986" y1="1" x2="9.37986" y2="15.8593" gradientUnits="userSpaceOnUse">
      <stop stop-color="#4C0497"/>
      <stop offset="1" stop-color="#4C0497" stop-opacity="0.5"/>
    </linearGradient>
    <linearGradient id="paint2_linear_0_1" x1="16.8618" y1="1.08398" x2="16.8618" y2="4.43641" gradientUnits="userSpaceOnUse">
      <stop stop-color="#4C0497"/>
      <stop offset="1" stop-color="#4C0497" stop-opacity="0.5"/>
    </linearGradient>
    <linearGradient id="paint3_linear_0_1" x1="16.8618" y1="1.08398" x2="16.8618" y2="4.43641" gradientUnits="userSpaceOnUse">
      <stop stop-color="#4C0497"/>
      <stop offset="1" stop-color="#4C0497" stop-opacity="0.5"/>
    </linearGradient>
    <linearGradient id="paint4_linear_0_1" x1="19.2596" y1="8.98828" x2="19.2596" y2="11.2919" gradientUnits="userSpaceOnUse">
      <stop stop-color="#4C0497"/>
      <stop offset="1" stop-color="#4C0497" stop-opacity="0.5"/>
    </linearGradient>
    <linearGradient id="paint5_linear_0_1" x1="19.2596" y1="8.98828" x2="19.2596" y2="11.2919" gradientUnits="userSpaceOnUse">
      <stop stop-color="#4C0497"/>
      <stop offset="1" stop-color="#4C0497" stop-opacity="0.5"/>
    </linearGradient>
    <linearGradient id="paint6_linear_0_1" x1="19.2519" y1="5.08594" x2="19.2519" y2="7.04195" gradientUnits="userSpaceOnUse">
      <stop stop-color="#4C0497"/>
      <stop offset="1" stop-color="#4C0497" stop-opacity="0.5"/>
    </linearGradient>
    <linearGradient id="paint7_linear_0_1" x1="19.2519" y1="5.08594" x2="19.2519" y2="7.04195" gradientUnits="userSpaceOnUse">
      <stop stop-color="#4C0497"/>
      <stop offset="1" stop-color="#4C0497" stop-opacity="0.5"/>
    </linearGradient>
  </defs>
</svg>