<svg xmlns="http://www.w3.org/2000/svg" width="18.466" height="21.974" viewBox="0 0 18.466 21.974">
  <path id="Icon_awesome-apple" data-name="Icon awesome-apple" d="M15.72,13.862A4.58,4.58,0,0,1,18.173,9.7a5.271,5.271,0,0,0-4.155-2.188c-1.742-.137-3.645,1.016-4.342,1.016-.736,0-2.423-.966-3.748-.966C3.19,7.607.281,9.746.281,14.1a12.227,12.227,0,0,0,.706,3.984c.628,1.8,2.894,6.216,5.259,6.142,1.236-.029,2.11-.878,3.719-.878,1.56,0,2.37.878,3.748.878,2.384-.034,4.435-4.047,5.033-5.853a4.863,4.863,0,0,1-3.027-4.508ZM12.943,5.807A4.621,4.621,0,0,0,14.121,2.25,5.2,5.2,0,0,0,10.79,3.962,4.693,4.693,0,0,0,9.534,7.489a4.12,4.12,0,0,0,3.41-1.683Z" transform="translate(-0.281 -2.25)"/>
</svg>
