


<svg width="16" height="16" viewBox="0 0 16 16" fill="none" xmlns="http://www.w3.org/2000/svg">
<path d="M15.0488 7.15558L15.0492 7.15515C15.1779 7.02486 15.1968 6.77511 15.0263 6.60248L15.0488 7.15558ZM15.0488 7.15558L11.7185 10.5326L11.7172 10.534M15.0488 7.15558L11.7172 10.534M11.7172 10.534C11.598 10.6554 11.3704 10.6788 11.2024 10.5089C11.0597 10.3642 11.0472 10.1531 11.1344 10.0119L11.4848 9.44382M11.7172 10.534L11.4848 9.44382M11.4848 9.44382L11.016 8.96868M11.4848 9.44382L11.016 8.96868M11.016 8.96868L9.54868 7.48135L8.94323 6.86766M11.016 8.96868L8.94323 6.86766M8.94323 6.86766L8.94272 6.86818M8.94323 6.86766L8.94272 6.86818M8.94272 6.86818L8.63454 6.55571L7.16814 5.06886L6.68477 4.57875L6.1049 4.9497C5.98304 5.02766 5.79099 5.02379 5.64801 4.8798C5.47635 4.70528 5.49611 4.4547 5.62475 4.3243L5.62479 4.32426L8.95521 0.948012C9.07758 0.824097 9.30557 0.802893 9.47262 0.971287C9.61556 1.11657 9.62668 1.32879 9.54101 1.46682L9.18805 2.0355L9.65808 2.51199L13.5061 6.41285L13.9877 6.9011L14.5667 6.53355C14.6931 6.45336 14.8848 6.4595 15.0262 6.60239L8.94272 6.86818ZM6.87626 9.11081L6.90829 9.38545C6.92543 9.53239 6.87941 9.66894 6.78403 9.76546L6.78366 9.76584L1.59882 15.0194L1.59871 15.0195C1.51127 15.1082 1.40102 15.15 1.29097 15.15C1.18092 15.15 1.07067 15.1082 0.983226 15.0195C0.80544 14.8393 0.805834 14.5425 0.982951 14.3632L0.983227 14.3629L6.16621 9.10934C6.29506 8.97873 6.48307 8.94647 6.64055 9.01229L6.87626 9.11081Z" stroke="url(#paint0_linear_1083_4747)" stroke-opacity="0.7" stroke-width="1.7"/>
<defs>
  <linearGradient id="paint0_linear_1083_4747" x1="8" y1="0" x2="8" y2="16" gradientUnits="userSpaceOnUse">
    <stop stop-color="#4C0497"/>
    <stop offset="1" stop-color="#4C0497" stop-opacity="0.5"/>
  </linearGradient>
</defs>
</svg>