<svg width="18" height="18" viewBox="0 0 18 18" fill="none" xmlns="http://www.w3.org/2000/svg">
  <path d="M15.3156 10.8476C13.7463 12.4099 11.4991 12.89 9.52612 12.2727L5.17646 16.6164C4.91745 16.8831 4.40706 17.0431 4.04142 16.9898L2.38077 16.7612C1.8323 16.685 1.32192 16.1668 1.23812 15.618L1.00959 13.9568C0.956266 13.591 1.13147 13.0804 1.38285 12.8213L5.72492 8.47769C5.11551 6.49631 5.5878 4.24825 7.15704 2.68605C9.40421 0.437984 13.0532 0.437984 15.3079 2.68605C17.5627 4.9341 17.5627 8.59956 15.3156 10.8476Z" stroke="url(#paint0_linear_0_1)" stroke-opacity="0.7" stroke-width="1.7" stroke-miterlimit="10" stroke-linecap="round" stroke-linejoin="round"/>
  <path d="M11.3051 8.3226C12.2038 8.3226 12.9322 7.59417 12.9322 6.69549C12.9322 5.79686 12.2038 5.06836 11.3051 5.06836C10.4065 5.06836 9.67798 5.79686 9.67798 6.69549C9.67798 7.59417 10.4065 8.3226 11.3051 8.3226Z" stroke="url(#paint1_linear_0_1)" stroke-opacity="0.7" stroke-width="1.7" stroke-linecap="round" stroke-linejoin="round"/>
  <defs>
    <linearGradient id="paint0_linear_0_1" x1="9" y1="1" x2="9" y2="17" gradientUnits="userSpaceOnUse">
      <stop stop-color="#4C0497"/>
      <stop offset="1" stop-color="#4C0497" stop-opacity="0.5"/>
    </linearGradient>
    <linearGradient id="paint1_linear_0_1" x1="11.3051" y1="5.06836" x2="11.3051" y2="8.3226" gradientUnits="userSpaceOnUse">
      <stop stop-color="#4C0497"/>
      <stop offset="1" stop-color="#4C0497" stop-opacity="0.5"/>
    </linearGradient>
  </defs>
</svg>


<svg width="22" height="73" viewBox="0 0 22 73" fill="none" xmlns="http://www.w3.org/2000/svg">
<path d="M13.7176 1.02164L13.7177 1.02164C13.8728 1.10076 13.9904 1.23831 14.0442 1.4041M13.7176 1.02164L14.0442 1.4041M13.7176 1.02164C13.5622 0.942431 13.382 0.928329 13.2161 0.982207L13.2161 0.982208M13.7176 1.02164L13.2161 0.982208M14.0442 1.4041L17.7774 12.8936C17.8896 13.2387 17.7006 13.6094 17.3554 13.7216L14.8155 14.5468C14.7494 14.5683 14.6808 14.579 14.6124 14.579C14.5097 14.579 14.4073 14.5549 14.3141 14.5074C14.1588 14.4283 14.0413 14.2907 13.9875 14.125M14.0442 1.4041L13.9875 14.125M13.9875 14.125L14.035 14.1095L13.9875 14.125L13.9875 14.125ZM13.9875 14.125L13.8717 13.7684L12.6051 13.7618C12.312 14.9916 11.2048 15.9093 9.8863 15.9093C8.55762 15.9093 7.44294 14.9775 7.16042 13.7331L5.89926 13.7265M13.9875 14.125L5.89926 13.7265M13.2161 0.982208L10.6762 1.80758C10.3311 1.91973 10.1421 2.29043 10.2544 2.63558L10.3701 2.99203L3.94497 7.71161L1.40406 8.53717L1.40406 8.53717M13.2161 0.982208L1.40406 8.53717M1.40406 8.53717C1.23829 8.59105 1.10073 8.70854 1.02162 8.8638M1.40406 8.53717L1.02162 8.8638M3.35876 14.552L3.35875 14.552C3.29137 14.5739 3.22293 14.5843 3.1555 14.5843C2.87859 14.5843 2.62096 14.4079 2.53069 14.1302L0.982186 9.36524L3.35876 14.552ZM3.35876 14.552L5.89926 13.7265M3.35876 14.552L5.89926 13.7265M1.02162 8.8638C0.942494 9.01906 0.928302 9.19947 0.982185 9.36524L1.02162 8.8638ZM15.0342 13.0939L16.3243 12.6745L12.9973 2.43509L11.7073 2.85435L13.3708 7.97412L14.9747 12.9103C14.9747 12.9104 14.9747 12.9105 14.9748 12.9106L14.9748 12.9107L15.0342 13.0939ZM15.0342 13.0939L14.9758 12.9143L15.0342 13.0939ZM12.5654 13.7116L13.9081 13.7186L7.20068 13.6833C7.46361 14.9248 8.56778 15.8593 9.8863 15.8593C11.1948 15.8593 12.2917 14.9388 12.5654 13.7116ZM3.57746 13.099L2.43523 9.58394L3.8267 9.13181L4.96877 12.6469L3.57746 13.099ZM9.88622 14.595C9.29363 14.595 8.78175 14.2448 8.54519 13.7404L11.2212 13.7545C10.9818 14.2515 10.4734 14.595 9.88622 14.595ZM6.27497 12.4141L5.6476 10.4833L5.02023 8.55239L10.7977 4.30865L12.5742 9.77574L13.4437 12.452L6.27497 12.4141Z" fill="url(#paint0_linear_0_1)" stroke="url(#paint1_linear_0_1)" stroke-width="0.1"/>
<path d="M16.0185 4.41467L16.0185 4.41466C15.6952 4.24985 15.5667 3.85409 15.7316 3.5307L16.0185 4.41467ZM16.0185 4.41467C16.1141 4.46334 16.216 4.48641 16.3165 4.48641C16.5555 4.48641 16.7863 4.35541 16.9024 4.12754C16.9024 4.12754 16.9024 4.12754 16.9024 4.12754L17.9921 1.98965C18.157 1.66633 18.0284 1.27056 17.7051 1.10576L17.7051 1.10575C17.3818 0.94104 16.9861 1.06938 16.8212 1.39279C16.8212 1.39279 16.8212 1.39279 16.8212 1.39279L15.7316 3.53069L16.0185 4.41467Z" fill="url(#paint2_linear_0_1)" stroke="url(#paint3_linear_0_1)" stroke-width="0.1"/>
<path d="M20.627 10.0992L20.627 10.0992C20.9504 10.264 21.0791 10.6596 20.9142 10.983C20.9142 10.983 20.9142 10.983 20.9142 10.983L20.8697 10.9603C20.7624 11.1707 20.5492 11.2919 20.3282 11.2919C20.2355 11.2919 20.1415 11.2706 20.0531 11.2257L20.627 10.0992ZM20.627 10.0992L18.4888 9.00996L18.4888 9.00995C18.1654 8.84533 17.7697 8.97385 17.605 9.29725L20.627 10.0992Z" fill="url(#paint4_linear_0_1)" stroke="url(#paint5_linear_0_1)" stroke-width="0.1"/>
<path d="M21.0177 5.49006C20.9055 5.14481 20.5348 4.9563 20.1897 5.06817L20.1896 5.06818L17.9078 5.80969L17.9078 5.80969C17.5627 5.92193 17.3738 6.29262 17.486 6.63776L17.486 6.63776C17.5763 6.91549 17.8339 7.09195 18.1108 7.09195C18.1782 7.09195 18.2467 7.08151 18.314 7.05964L18.3141 7.05963L20.5959 6.31813L20.5959 6.31812C20.9409 6.20598 21.1299 5.83528 21.0177 5.49006ZM21.0177 5.49006L20.9701 5.50551M21.0177 5.49006C21.0177 5.49006 21.0177 5.49005 21.0177 5.49005L20.9701 5.50551M20.9701 5.50551C21.0738 5.82445 20.8992 6.16696 20.5804 6.27057L18.2986 7.01208C18.2363 7.03232 18.1731 7.04195 18.1108 7.04195C17.8549 7.04195 17.6169 6.87884 17.5335 6.6223C17.4299 6.30344 17.6045 5.96094 17.9232 5.85724L20.2051 5.11573C20.524 5.01236 20.8665 5.18656 20.9701 5.50551Z" fill="url(#paint6_linear_0_1)" stroke="url(#paint7_linear_0_1)" stroke-width="0.1"/>
<path fill-rule="evenodd" clip-rule="evenodd" d="M8.54369 57C8.38009 57 8.25465 56.9999 8.14499 57.0117C7.13724 57.1198 6.36591 57.9474 6.3191 58.9498C5.43287 59.2144 4.80136 60.0344 4.78997 60.9749C4.34284 61.1091 3.95718 61.3208 3.64146 61.6618C3.15626 62.1859 3.00589 62.8318 3.00017 63.5863C2.99466 64.3116 3.12391 65.2282 3.28442 66.3665L3.61111 68.6836C3.73659 69.5738 3.83852 70.2968 3.99712 70.8634C4.16306 71.4563 4.40764 71.944 4.86048 72.319C5.30974 72.6909 5.84273 72.8513 6.47272 72.9269C7.08186 73 7.84817 73 8.80228 73H13.1976C14.1518 73 14.9181 73 15.5272 72.9269C16.1573 72.8513 16.6903 72.6909 17.1395 72.319C17.5924 71.944 17.8369 71.4563 18.0028 70.8634C18.1614 70.2968 18.2634 69.5738 18.3889 68.6836L18.7156 66.3665C18.8761 65.2282 19.0053 64.3116 18.9998 63.5863C18.9941 62.8318 18.8437 62.1859 18.3585 61.6618C18.0427 61.3207 17.6569 61.109 17.2097 60.9748C17.1982 60.0344 16.5669 59.2145 15.6807 58.9499C15.6339 57.9474 14.8625 57.1198 13.8548 57.0117C13.7451 56.9999 13.6197 57 13.4561 57H8.54369ZM16.0683 60.7788C15.9662 60.3266 15.5623 59.9767 15.0645 59.9767H6.93515C6.43736 59.9767 6.03343 60.3267 5.93136 60.7789C6.62032 60.7209 7.46491 60.7209 8.48162 60.7209H13.5183C14.5349 60.7209 15.3794 60.7209 16.0683 60.7788ZM14.548 58.8605C14.4687 58.4708 14.1451 58.1655 13.7357 58.1216C13.6938 58.1171 13.6341 58.1163 13.4251 58.1163H8.57468C8.36567 58.1163 8.30599 58.1171 8.2641 58.1216C7.85465 58.1655 7.53106 58.4708 7.45179 58.8605H14.548ZM4.46059 62.4202C4.686 62.1767 5.02497 62.0152 5.68362 61.9276C6.35423 61.8384 7.25195 61.8372 8.52363 61.8372H13.4763C14.748 61.8372 15.6457 61.8384 16.3164 61.9276C16.975 62.0152 17.314 62.1767 17.5394 62.4202C17.7596 62.658 17.8789 62.9816 17.8836 63.5948C17.8884 64.2274 17.7722 65.0616 17.6037 66.2564L17.289 68.489C17.1567 69.4272 17.0641 70.0761 16.9279 70.5626C16.7967 71.031 16.6424 71.2813 16.4276 71.4592C16.2092 71.64 15.9159 71.756 15.3943 71.8186C14.8594 71.8828 14.1602 71.8837 13.1615 71.8837H8.8384C7.83978 71.8837 7.14059 71.8828 6.60572 71.8186C6.08403 71.756 5.7908 71.64 5.57238 71.4592C5.35754 71.2813 5.20322 71.031 5.07209 70.5626C4.93592 70.0761 4.84327 69.4272 4.71098 68.489L4.39621 66.2564C4.22776 65.0616 4.11161 64.2274 4.11641 63.5948C4.12107 62.9816 4.24041 62.658 4.46059 62.4202Z" fill="url(#paint8_linear_0_1)" fill-opacity="0.7"/>
<defs>
  <linearGradient id="paint0_linear_0_1" x1="9.37986" y1="1" x2="9.37986" y2="15.8593" gradientUnits="userSpaceOnUse">
    <stop stop-color="#4C0497"/>
    <stop offset="1" stop-color="#4C0497" stop-opacity="0.5"/>
  </linearGradient>
  <linearGradient id="paint1_linear_0_1" x1="9.37986" y1="1" x2="9.37986" y2="15.8593" gradientUnits="userSpaceOnUse">
    <stop stop-color="#4C0497"/>
    <stop offset="1" stop-color="#4C0497" stop-opacity="0.5"/>
  </linearGradient>
  <linearGradient id="paint2_linear_0_1" x1="16.8618" y1="1.08398" x2="16.8618" y2="4.43641" gradientUnits="userSpaceOnUse">
    <stop stop-color="#4C0497"/>
    <stop offset="1" stop-color="#4C0497" stop-opacity="0.5"/>
  </linearGradient>
  <linearGradient id="paint3_linear_0_1" x1="16.8618" y1="1.08398" x2="16.8618" y2="4.43641" gradientUnits="userSpaceOnUse">
    <stop stop-color="#4C0497"/>
    <stop offset="1" stop-color="#4C0497" stop-opacity="0.5"/>
  </linearGradient>
  <linearGradient id="paint4_linear_0_1" x1="19.2596" y1="8.98828" x2="19.2596" y2="11.2919" gradientUnits="userSpaceOnUse">
    <stop stop-color="#4C0497"/>
    <stop offset="1" stop-color="#4C0497" stop-opacity="0.5"/>
  </linearGradient>
  <linearGradient id="paint5_linear_0_1" x1="19.2596" y1="8.98828" x2="19.2596" y2="11.2919" gradientUnits="userSpaceOnUse">
    <stop stop-color="#4C0497"/>
    <stop offset="1" stop-color="#4C0497" stop-opacity="0.5"/>
  </linearGradient>
  <linearGradient id="paint6_linear_0_1" x1="19.2519" y1="5.08594" x2="19.2519" y2="7.04195" gradientUnits="userSpaceOnUse">
    <stop stop-color="#4C0497"/>
    <stop offset="1" stop-color="#4C0497" stop-opacity="0.5"/>
  </linearGradient>
  <linearGradient id="paint7_linear_0_1" x1="19.2519" y1="5.08594" x2="19.2519" y2="7.04195" gradientUnits="userSpaceOnUse">
    <stop stop-color="#4C0497"/>
    <stop offset="1" stop-color="#4C0497" stop-opacity="0.5"/>
  </linearGradient>
  <linearGradient id="paint8_linear_0_1" x1="11" y1="57" x2="11" y2="73" gradientUnits="userSpaceOnUse">
    <stop stop-color="#4C0497"/>
    <stop offset="1" stop-color="#4C0497" stop-opacity="0.5"/>
  </linearGradient>
</defs>
</svg>
