<svg width="18" height="18" viewBox="0 0 18 18" fill="none" xmlns="http://www.w3.org/2000/svg">
  <path d="M10.5144 7.56021C10.4882 7.53712 10.4634 7.51246 10.4402 7.48637C10.3781 7.41658 10.3294 7.33908 10.294 7.25717C10.2492 7.15366 10.2242 7.03955 10.2239 6.91967V6.91711V1.77498C10.2239 1.30165 10.6076 0.917958 11.0809 0.917958C11.5542 0.917958 11.9379 1.30165 11.9379 1.77498V4.84805L16.5349 0.251014C16.8697 -0.0836715 17.4122 -0.0836715 17.747 0.251014C18.0817 0.585707 18.0817 1.12834 17.747 1.46303L13.1499 6.06009H16.223C16.6964 6.06009 17.0801 6.44379 17.0801 6.91711C17.0801 7.39043 16.6964 7.7741 16.223 7.7741H11.0809C10.9543 7.7741 10.8342 7.74668 10.7261 7.69747C10.6507 7.66321 10.5793 7.61745 10.5144 7.56021Z" fill="#F05A35"/>
  <path fill-rule="evenodd" clip-rule="evenodd" d="M0.0106316 3.94431C-0.142604 2.14279 1.38514 0.857056 3.00994 0.857056H5.0448C6.01598 0.857056 6.89182 1.44139 7.26471 2.33815L8.26717 4.74924C8.6104 5.57459 8.46737 6.5222 7.89582 7.20947L6.82249 8.50016C7.51504 9.55224 8.38741 10.5009 9.38095 11.2862L10.7841 10.1144C11.4725 9.53964 12.4237 9.39575 13.2513 9.7413L15.6529 10.744C16.5479 11.1178 17.1307 11.9926 17.1307 12.9625C17.1307 13.2971 17.1332 13.6318 17.1358 13.9703V13.9716C17.1383 14.3085 17.1409 14.6492 17.1409 14.9905C17.1409 16.6151 15.8552 18.1431 14.0534 17.9893C6.73465 17.3644 0.634655 11.2809 0.0106316 3.94431ZM3.00994 2.5711C2.2013 2.5711 1.6655 3.17587 1.71851 3.79904C2.27166 10.3024 7.7107 15.7275 14.1992 16.2815C14.8221 16.3346 15.4268 15.7992 15.4268 14.9905C15.4268 14.6562 15.4243 14.3217 15.4218 13.9832V13.9811C15.4192 13.6445 15.4166 13.3037 15.4166 12.9625C15.4166 12.6841 15.2493 12.433 14.9925 12.3257L12.5909 11.323C12.3534 11.2239 12.0803 11.2651 11.8827 11.4301L9.4556 13.4569L8.91782 13.0785C7.34569 11.9721 5.99846 10.516 5.02892 8.86028L4.72514 8.34144L6.57792 6.11351C6.74197 5.91624 6.78303 5.64424 6.68453 5.40732L5.68198 2.99623C5.57496 2.73883 5.32357 2.5711 5.0448 2.5711H3.00994Z" fill="#4C0497"/>
</svg>


