<svg width="13" height="13" viewBox="0 0 13 13" fill="none" xmlns="http://www.w3.org/2000/svg">
    <path d="M6.73478 1.09689C6.7734 0.858375 6.99891 0.696576 7.23738 0.735187C7.2522 0.738016 7.29968 0.746895 7.32459 0.752436C7.37435 0.76352 7.44376 0.780588 7.53033 0.805805C7.70346 0.856229 7.94532 0.939295 8.23558 1.07238C8.81676 1.33882 9.59014 1.8049 10.3927 2.60745C11.1952 3.41 11.6613 4.18339 11.9278 4.76456C12.0608 5.05483 12.1439 5.29668 12.1943 5.46981C12.2196 5.55638 12.2366 5.62581 12.2477 5.67558C12.2532 5.70047 12.2573 5.72046 12.2601 5.73522L12.2635 5.75342C12.3021 5.99192 12.1418 6.22672 11.9032 6.26533C11.6654 6.30383 11.4413 6.14283 11.4018 5.90542C11.4006 5.89906 11.3972 5.88197 11.3936 5.86581C11.3865 5.83349 11.374 5.78225 11.3543 5.7145C11.3148 5.57897 11.2462 5.37752 11.1324 5.12922C10.905 4.6332 10.4961 3.94826 9.77395 3.22617C9.0519 2.50409 8.36695 2.09517 7.87094 1.86777C7.62262 1.75393 7.42119 1.68537 7.28562 1.64589C7.2179 1.62616 7.13273 1.60661 7.10042 1.59941C6.863 1.55985 6.69628 1.33473 6.73478 1.09689Z" fill="#F05A35"/>
    <path fill-rule="evenodd" clip-rule="evenodd" d="M6.86682 3.10905C6.9332 2.87672 7.17534 2.74219 7.40762 2.80857L7.28746 3.22924C7.40762 2.80857 7.40762 2.80857 7.40762 2.80857L7.4085 2.80882L7.40937 2.80907L7.41136 2.80964L7.41585 2.81099L7.4274 2.81459C7.43621 2.8174 7.44717 2.82106 7.4603 2.82571C7.48649 2.835 7.52108 2.84823 7.56355 2.86643C7.64854 2.90285 7.76468 2.95909 7.90731 3.04351C8.19285 3.21249 8.58257 3.49318 9.04049 3.95108C9.49841 4.40898 9.77911 4.79875 9.94804 5.08428C10.0325 5.22691 10.0887 5.34303 10.1251 5.42801C10.1433 5.47048 10.1566 5.50511 10.1659 5.5313C10.1705 5.5444 10.1742 5.55538 10.177 5.56418L10.1806 5.57572L10.182 5.58024L10.1825 5.58219L10.1828 5.58308C10.1828 5.58308 10.183 5.58393 9.76231 5.70412L10.183 5.58392C10.2494 5.81625 10.1149 6.05839 9.88253 6.12477C9.65217 6.19057 9.41213 6.05892 9.34342 5.8302L9.34126 5.82391C9.33811 5.81515 9.33169 5.79789 9.3209 5.77269C9.29932 5.72233 9.26017 5.63994 9.19507 5.52993C9.06499 5.31016 8.83008 4.9781 8.42181 4.56979C8.01347 4.16149 7.68138 3.92658 7.46164 3.79652C7.35162 3.7314 7.26926 3.69226 7.21886 3.67068C7.19366 3.65988 7.17645 3.65344 7.16764 3.65033L7.1614 3.64817C6.93267 3.57942 6.80096 3.3394 6.86682 3.10905Z" fill="#F05A35"/>
    <path fill-rule="evenodd" clip-rule="evenodd" d="M1.92106 2.57083C2.9011 1.59079 4.55493 1.66529 5.23733 2.88803L5.61592 3.56641C6.06153 4.36488 5.87165 5.37235 5.21931 6.03269C5.21062 6.04459 5.16453 6.11162 5.15882 6.22875C5.15153 6.37826 5.20461 6.72406 5.74034 7.25979C6.2759 7.79541 6.62164 7.84861 6.77127 7.84132C6.88852 7.83566 6.9556 7.78958 6.9675 7.78088C7.62783 7.12854 8.63531 6.93861 9.43378 7.38428L10.1121 7.76286C11.3349 8.44524 11.4094 10.0991 10.4294 11.0791C9.90511 11.6034 9.20808 12.0691 8.38897 12.1002C7.17511 12.1462 5.15952 11.8327 3.1635 9.83667C1.16745 7.84062 0.853981 5.82508 0.899994 4.6112C0.931051 3.79209 1.39684 3.09505 1.92106 2.57083ZM4.47326 3.31445C4.12383 2.68833 3.18484 2.54448 2.53977 3.18955C2.08749 3.64184 1.79345 4.14106 1.77437 4.64435C1.73599 5.65663 1.98592 7.42167 3.78222 9.21793C5.57853 11.0142 7.34352 11.2642 8.35583 11.2258C8.85913 11.2067 9.35835 10.9127 9.81061 10.4604C10.4557 9.81532 10.3118 8.87633 9.68572 8.52691L9.00736 8.14833C8.58537 7.91283 7.99259 7.99316 7.5765 8.40925C7.53567 8.45008 7.27544 8.69287 6.81379 8.71533C6.34112 8.73831 5.76904 8.52592 5.12166 7.87853C4.47401 7.23092 4.26173 6.65867 4.28487 6.18599C4.30748 5.72425 4.55027 5.46431 4.5909 5.42368C5.00698 5.00758 5.08736 4.41481 4.85187 3.99282L4.47326 3.31445Z" fill="#F05A35"/>
</svg>