<svg width="18" height="16" viewBox="0 0 18 16" fill="none" xmlns="http://www.w3.org/2000/svg">
  <path fill-rule="evenodd" clip-rule="evenodd" d="M5.31496 1.83521C5.53835 0.760435 6.51422 0 7.63225 0H10.3677C11.4858 0 12.4616 0.760435 12.6851 1.83521C12.7366 2.08331 12.9659 2.26532 13.2045 2.26532H13.2182L13.2319 2.2659C14.4069 2.31626 15.3094 2.45758 16.0629 2.94201C16.5376 3.24724 16.9459 3.63993 17.2641 4.09817C17.66 4.66828 17.8346 5.32262 17.9183 6.11401C18 6.88722 18 7.85641 18 9.08398V9.15381C18 10.3814 18 11.3506 17.9183 12.1237C17.8346 12.9151 17.66 13.5695 17.2641 14.1396C16.9459 14.5978 16.5376 14.9905 16.0629 15.2958C15.4739 15.6744 14.7987 15.8414 13.9797 15.9216C13.1779 16 12.1722 16 10.8949 16H7.10504C5.8278 16 4.82205 16 4.02025 15.9216C3.20131 15.8414 2.52612 15.6744 1.93718 15.2958C1.46245 14.9905 1.05409 14.5978 0.735899 14.1396C0.340008 13.5695 0.165399 12.9151 0.0817285 12.1237C-1.65673e-05 11.3506 -8.20265e-06 10.3814 1.69442e-07 9.15381V9.08398C-8.20265e-06 7.85641 -1.65673e-05 6.88722 0.0817285 6.11401C0.165399 5.32262 0.340008 4.66828 0.735899 4.09817C1.05409 3.63993 1.46245 3.24724 1.93718 2.94201C2.69065 2.45758 3.59313 2.31626 4.7681 2.2659L4.78181 2.26532H4.79554C5.03404 2.26532 5.26339 2.08332 5.31496 1.83521ZM7.63225 1.23077C7.09553 1.23077 6.64665 1.59425 6.5455 2.08088C6.38169 2.869 5.66874 3.48871 4.81088 3.49602C3.68181 3.54518 3.07705 3.68112 2.62602 3.9711C2.28817 4.18832 1.99885 4.46695 1.7741 4.79062C1.5429 5.12357 1.40397 5.54933 1.33085 6.24085C1.2566 6.94326 1.25581 7.8487 1.25581 9.11885C1.25581 10.3891 1.2566 11.2945 1.33085 11.9969C1.40397 12.6884 1.5429 13.1142 1.7741 13.4471C1.99885 13.7708 2.28817 14.0495 2.62602 14.2667C2.97558 14.4914 3.42288 14.6261 4.14506 14.6969C4.87715 14.7685 5.82022 14.7692 7.13954 14.7692H10.8604C12.1798 14.7692 13.1228 14.7685 13.855 14.6969C14.5772 14.6261 15.0244 14.4914 15.374 14.2667C15.7118 14.0495 16.0012 13.7708 16.2259 13.4471C16.4571 13.1142 16.596 12.6884 16.6692 11.9969C16.7434 11.2945 16.7442 10.3891 16.7442 9.11885C16.7442 7.8487 16.7434 6.94326 16.6692 6.24085C16.596 5.54933 16.4571 5.12357 16.2259 4.79062C16.0012 4.46695 15.7118 4.18832 15.374 3.9711C14.9229 3.68112 14.3182 3.54518 13.1891 3.49602C12.3313 3.48871 11.6183 2.869 11.4545 2.08088C11.3533 1.59425 10.9045 1.23077 10.3677 1.23077H7.63225ZM9 6.97436C7.95968 6.97436 7.11628 7.80094 7.11628 8.82051C7.11628 9.84008 7.95968 10.6667 9 10.6667C10.0403 10.6667 10.8837 9.84008 10.8837 8.82051C10.8837 7.80094 10.0403 6.97436 9 6.97436ZM5.86047 8.82051C5.86047 7.12115 7.26608 5.74359 9 5.74359C10.7339 5.74359 12.1395 7.12115 12.1395 8.82051C12.1395 10.5199 10.7339 11.8974 9 11.8974C7.26608 11.8974 5.86047 10.5199 5.86047 8.82051ZM13.3953 6.35897C13.3953 6.01911 13.6765 5.74359 14.0233 5.74359H14.8605C15.2072 5.74359 15.4884 6.01911 15.4884 6.35897C15.4884 6.69883 15.2072 6.97436 14.8605 6.97436H14.0233C13.6765 6.97436 13.3953 6.69883 13.3953 6.35897Z" fill="white"/>
</svg>