<svg width="23" height="23" viewBox="0 0 23 23" fill="none" xmlns="http://www.w3.org/2000/svg">
<path d="M6.68401 1.18789L6.56271 0.96929C5.06758 1.7989 3.78044 2.95893 2.79883 4.36139C1.81728 5.76376 1.16695 7.37176 0.89707 9.06351C0.415028 12.0349 1.12858 15.0767 2.88119 17.521C4.63388 19.9654 7.28248 21.6124 10.2454 22.1L10.2454 22.1C10.8512 22.1996 11.4639 22.2497 12.0777 22.25H12.0784C14.1344 22.2454 16.1504 21.6799 17.9103 20.6141C19.6702 19.5483 21.1077 18.0224 22.0688 16.2L22.0689 16.2L22.0722 16.1933C22.2148 15.9022 22.2734 15.577 22.2415 15.2543C22.2097 14.9316 22.0885 14.6242 21.8917 14.3667C21.6949 14.1093 21.4303 13.912 21.1275 13.7971C20.8247 13.6823 20.4959 13.6546 20.1782 13.7171L20.1782 13.7171L20.1745 13.7179C18.5012 14.0739 16.7627 13.9649 15.1467 13.4025C13.0489 12.6651 11.284 11.1981 10.1722 9.2673C9.08474 7.37887 8.69261 5.16925 9.06118 3.02313L9.08898 3.02527L9.13 2.80437C9.19051 2.47852 9.15529 2.14205 9.0286 1.83586C8.90242 1.5309 8.69089 1.26899 8.41946 1.08181C8.15353 0.887497 7.83763 0.773446 7.50901 0.753243C7.17906 0.732958 6.85029 0.808144 6.5618 0.969798L6.68401 1.18789ZM6.68401 1.18789C5.22211 1.99906 3.96352 3.13334 3.00364 4.50475C2.04376 5.87616 1.40778 7.44871 1.1439 9.10322L8.27473 1.28569C8.04677 1.11831 7.77567 1.02011 7.49367 1.00277C7.21167 0.985435 6.93064 1.04969 6.68401 1.18789ZM4.4984 16.3416L4.49815 16.3413C3.73699 15.278 3.20745 14.066 2.94398 12.784C2.68051 11.502 2.68902 10.1787 2.96896 8.90018C3.2489 7.62168 3.79399 6.41661 4.56876 5.36332C5.23791 4.45362 6.06543 3.67473 7.00997 3.06339C6.67141 5.55883 7.1689 8.10246 8.43304 10.2906C9.78845 12.6367 11.9359 14.4195 14.4877 15.3168L14.4892 15.3173C16.2512 15.9243 18.1312 16.0926 19.9677 15.8118C19.2348 17.0033 18.2425 18.016 17.0626 18.7723C15.7341 19.6238 14.2116 20.1224 12.6382 20.2212C11.0648 20.32 9.49215 20.0158 8.06821 19.3371C6.64427 18.6585 5.41579 17.6277 4.4984 16.3416Z" fill="url(#paint0_linear_1083_7831)" stroke="url(#paint1_linear_1083_7831)" stroke-width="0.5"/>
<defs>
<linearGradient id="paint0_linear_1083_7831" x1="11.5" y1="1" x2="11.5" y2="22" gradientUnits="userSpaceOnUse">
<stop stop-color="#4C0497"/>
<stop offset="1" stop-color="#4C0497" stop-opacity="0.5"/>
</linearGradient>
<linearGradient id="paint1_linear_1083_7831" x1="11.5" y1="1" x2="11.5" y2="22" gradientUnits="userSpaceOnUse">
<stop stop-color="#4C0497"/>
<stop offset="1" stop-color="#4C0497" stop-opacity="0.5"/>
</linearGradient>
</defs>
</svg>
