<svg width="14" height="14" viewBox="0 0 14 14" fill="none" xmlns="http://www.w3.org/2000/svg">
  <path d="M11.8181 5.01471L9.01627 2.19118M11.8181 5.01471L8.31687 8.54299C7.85549 9.00795 7.29548 9.37501 6.65254 9.48675C6.00336 9.59962 5.19774 9.63718 4.81354 9.25C4.42935 8.86282 4.46662 8.05092 4.57858 7.39671C4.68947 6.74878 5.05373 6.18442 5.51508 5.71946L9.01627 2.19118M11.8181 5.01471C11.8181 5.01471 13.9193 2.89706 12.5184 1.48529C11.1175 0.0735294 9.01627 2.19118 9.01627 2.19118M12.9076 7C12.9076 11.5882 11.5067 13 6.9538 13C2.40089 13 1 11.5882 1 7C1 2.41176 2.40089 1 6.9538 1" stroke="#F05A35" stroke-width="1.2" stroke-linecap="round" stroke-linejoin="round"/>
</svg>