<svg width="10" height="9" viewBox="0 0 10 9" fill="none" xmlns="http://www.w3.org/2000/svg">
  <path d="M3.05313 7.82203C1.64909 6.69096 0 5.36248 0 3.05951C0 0.517177 2.75008 -1.28579 5 1.15837L6 2.20326C6.14645 2.35636 6.3839 2.35631 6.53035 2.20316C6.67675 2.05001 6.6767 1.80175 6.53025 1.64865L5.56425 0.638968C7.68425 -0.98381 10 0.726552 10 3.05951C10 5.36248 8.3509 6.69096 6.94685 7.82203C6.80095 7.93961 6.65765 8.05504 6.51915 8.16922C6 8.59713 5.5 9 5 9C4.5 9 4 8.59713 3.48087 8.16922C3.34236 8.05504 3.19907 7.93961 3.05313 7.82203Z" fill="white"/>
</svg>