<svg width="17" height="15" viewBox="0 0 17 15" fill="none" xmlns="http://www.w3.org/2000/svg">
  <path d="M13.4473 1.24357C11.9518 0.536827 10.1269 0.741186 8.5 2.18581C6.87309 0.741186 5.04819 0.536827 3.55272 1.24357C1.99008 1.98206 0.905234 3.66629 0.852047 5.61274H0.85V5.76274V5.91274H0.851548C0.890777 7.80714 1.67093 9.26154 2.67695 10.4327C3.50072 11.3917 4.51041 12.1954 5.39022 12.8957C5.58816 13.0532 5.77953 13.2055 5.96072 13.3532C5.96101 13.3534 5.96129 13.3537 5.96157 13.3539L6.08168 13.4518L6.08176 13.4517C6.40489 13.7138 6.75372 13.9884 7.10858 14.2027C7.46896 14.4204 7.88832 14.6097 8.35 14.6444V14.65H8.5H8.65V14.6444C9.11168 14.6097 9.53104 14.4204 9.89142 14.2027C10.2463 13.9884 10.5951 13.7138 10.9182 13.4517L10.9183 13.4518L11.0384 13.3539L11.0384 13.3539C11.0403 13.3524 11.0421 13.3509 11.044 13.3494C11.2239 13.2028 11.4137 13.0517 11.61 12.8955C12.4898 12.1952 13.4994 11.3916 14.3231 10.4327C15.3291 9.26154 16.1092 7.80714 16.1485 5.91274H16.15V5.76274V5.61274H16.148C16.0948 3.66629 15.0099 1.98206 13.4473 1.24357ZM4.11597 2.49885C5.15025 2.01007 6.5531 2.11082 7.9223 3.52143L7.92141 3.52234L8.01656 3.62068L8.11885 3.73056L8.12074 3.72868L8.12996 3.73824L8.13014 3.73806L9.31677 4.96445L9.41763 5.06871C9.41777 5.06885 9.41791 5.06899 9.41804 5.06913L9.52549 5.18018L9.53777 5.16748C9.79847 5.33548 10.1471 5.30248 10.3732 5.06853C10.5992 4.83488 10.6291 4.47691 10.4632 4.21029L10.4739 4.19916L10.3731 4.09498C10.3731 4.09495 10.3731 4.09492 10.373 4.09489L10.2652 3.98345L9.46543 3.15685C10.7081 2.09706 11.9472 2.05614 12.884 2.49885C13.985 3.01916 14.8035 4.26471 14.8035 5.76274C14.8035 7.30261 14.1959 8.49093 13.313 9.51879C12.5819 10.3699 11.6986 11.0741 10.8244 11.771C10.656 11.9053 10.4879 12.0393 10.3213 12.174L10.3212 12.1738L10.2042 12.2691C10.2031 12.2699 10.2021 12.2708 10.2011 12.2716C9.83254 12.572 9.5133 12.8275 9.20829 13.0118L9.20828 13.0118C8.90296 13.1963 8.67664 13.268 8.5 13.268C8.32337 13.268 8.09705 13.1963 7.79172 13.0118L7.79171 13.0118C7.48807 12.8283 7.1703 12.5742 6.80393 12.2757C6.80228 12.2743 6.80063 12.273 6.79899 12.2716C6.79765 12.2705 6.79631 12.2695 6.79497 12.2684L6.67889 12.1737L6.6787 12.174C6.51215 12.0393 6.3441 11.9053 6.17572 11.7711C5.30151 11.0742 4.41812 10.37 3.68701 9.51879C2.80416 8.49093 2.19651 7.30261 2.19651 5.76274C2.19651 4.26471 3.01501 3.01916 4.11597 2.49885Z" fill="url(#paint0_linear_1083_4711)" fill-opacity="0.7" stroke="url(#paint1_linear_1083_4711)" stroke-width="0.3"/>
  <defs>
    <linearGradient id="paint0_linear_1083_4711" x1="8.5" y1="1" x2="8.5" y2="14.5" gradientUnits="userSpaceOnUse">
      <stop stop-color="#4C0497"/>
      <stop offset="1" stop-color="#4C0497" stop-opacity="0.5"/>
    </linearGradient>
    <linearGradient id="paint1_linear_1083_4711" x1="8.5" y1="1" x2="8.5" y2="14.5" gradientUnits="userSpaceOnUse">
      <stop stop-color="#4C0497"/>
      <stop offset="1" stop-color="#4C0497" stop-opacity="0.5"/>
    </linearGradient>
  </defs>
</svg>