<svg width="20" height="20" viewBox="0 0 20 20" fill="none" xmlns="http://www.w3.org/2000/svg">
    <path d="M1.66667 14.5834H5.83334" stroke="#F05A35" stroke-width="1.5" stroke-miterlimit="10" stroke-linecap="round" stroke-linejoin="round"/>
    <path d="M18.3333 5.41663H14.1667" stroke="#F05A35" stroke-width="1.5" stroke-miterlimit="10" stroke-linecap="round" stroke-linejoin="round"/>
    <path d="M10.8333 14.5834H18.3333" stroke="#F05A35" stroke-width="1.5" stroke-miterlimit="10" stroke-linecap="round" stroke-linejoin="round"/>
    <path d="M9.16667 5.41663H1.66667" stroke="#F05A35" stroke-width="1.5" stroke-miterlimit="10" stroke-linecap="round" stroke-linejoin="round"/>
    <path d="M8.33334 16.9999C6.95264 16.9999 5.83334 15.8806 5.83334 14.4999C5.83334 13.1191 6.95264 11.9999 8.33334 11.9999C9.71409 11.9999 10.8333 13.1191 10.8333 14.4999C10.8333 15.8806 9.71409 16.9999 8.33334 16.9999Z" stroke="#F05A35" stroke-width="1.5" stroke-miterlimit="10" stroke-linecap="round" stroke-linejoin="round"/>
    <path d="M11.6667 7.83325C13.0474 7.83325 14.1667 6.71397 14.1667 5.33325C14.1667 3.95254 13.0474 2.83325 11.6667 2.83325C10.2859 2.83325 9.16667 3.95254 9.16667 5.33325C9.16667 6.71397 10.2859 7.83325 11.6667 7.83325Z" stroke="#F05A35" stroke-width="1.5" stroke-miterlimit="10" stroke-linecap="round" stroke-linejoin="round"/>
</svg>