<svg xmlns="http://www.w3.org/2000/svg" width="16.667" height="16.67" viewBox="0 0 16.667 16.67">
  <g id="Group_37735" data-name="Group 37735" transform="translate(-237.3 -381)">
    <path id="Path_42044" data-name="Path 42044" d="M18.334,13.2a10.228,10.228,0,0,0-.148-1.689H10.165v3.214h4.594a3.786,3.786,0,0,1-1.7,2.524L15.8,19.338A8.116,8.116,0,0,0,18.334,13.2Z" transform="translate(235.633 376.334)" fill="#4280ef"/>
    <path id="Path_42045" data-name="Path 42045" d="M10.165,21.336A8.23,8.23,0,0,0,15.8,19.32l-2.741-2.07a5.206,5.206,0,0,1-7.669-2.633L2.57,16.742A8.514,8.514,0,0,0,10.165,21.336Z" transform="translate(235.633 376.334)" fill="#34a353"/>
    <path id="Path_42046" data-name="Path 42046" d="M5.386,14.6a4.969,4.969,0,0,1,0-3.2L2.57,9.261a8.2,8.2,0,0,0,0,7.481Z" transform="translate(235.633 376.334)" fill="#f6b704"/>
    <path id="Path_42047" data-name="Path 42047" d="M10.165,7.971a4.69,4.69,0,0,1,3.26,1.253l2.427-2.4a8.275,8.275,0,0,0-5.687-2.161A8.514,8.514,0,0,0,2.57,9.26L5.386,11.4A5.077,5.077,0,0,1,10.165,7.971Z" transform="translate(235.633 376.334)" fill="#e54335"/>
  </g>
</svg>
