<svg width="375" height="104" viewBox="0 0 375 104" fill="none" xmlns="http://www.w3.org/2000/svg">
<path fill-rule="evenodd" clip-rule="evenodd" d="M390 53.3324L382.557 49.4806C375.113 45.6288 359.888 37.9252 345.002 45.6288C329.777 53.3324 314.89 76.4432 299.665 80.295C284.778 84.1468 269.553 68.7396 254.667 61.036C239.78 53.3324 224.555 53.3324 209.668 64.8878C194.443 76.4432 179.557 99.554 164.332 103.406C149.445 107.258 134.22 91.8504 119.333 72.5914C104.447 53.3324 89.2216 30.2216 74.335 34.0734C59.11 37.9252 44.2233 68.7396 28.9983 68.7396C14.1117 68.7396 -1.11337 37.9252 -8.5567 22.518L-16 7.1108L-16 -16H-8.5567C-1.11337 -16 14.1117 -16 28.9983 -16C44.2233 -16 59.11 -16 74.335 -16C89.2216 -16 104.447 -16 119.333 -16C134.22 -16 149.445 -16 164.332 -16C179.557 -16 194.443 -16 209.668 -16C224.555 -16 239.78 -16 254.667 -16C269.553 -16 284.778 -16 299.665 -16C314.89 -16 329.777 -16 345.002 -16C359.888 -16 375.113 -16 382.557 -16H390L390 53.3324Z" fill="url(#paint0_linear_83_4257)"/>
<defs>
<linearGradient id="paint0_linear_83_4257" x1="187" y1="104" x2="187" y2="-16" gradientUnits="userSpaceOnUse">
<stop stop-color="#4C0497"/>
<stop offset="1" stop-color="#4C0497" stop-opacity="0.5"/>
</linearGradient>
</defs>
</svg>



