<svg width="15" height="15" viewBox="0 0 15 15" fill="none" xmlns="http://www.w3.org/2000/svg">
    <path d="M9.14457 5.8556L5.8556 9.14457C5.4331 8.72207 5.1731 8.14357 5.1731 7.50007C5.1731 6.21307 6.21307 5.1731 7.50007 5.1731C8.14357 5.1731 8.72207 5.4331 9.14457 5.8556Z" stroke="#4C0497" stroke-linecap="round" stroke-linejoin="round"/>
    <path d="M11.2829 3.45051C10.1454 2.59251 8.84542 2.12451 7.49992 2.12451C5.2054 2.12451 3.0669 3.47651 1.5784 5.81651C0.993398 6.73302 0.993398 8.27352 1.5784 9.19002C2.0919 9.99602 2.6899 10.6915 3.3399 11.2505" stroke="#4C0497" stroke-linecap="round" stroke-linejoin="round"/>
    <path d="M5.1731 12.3945C5.9141 12.7065 6.70057 12.8755 7.50007 12.8755C9.79457 12.8755 11.9331 11.5235 13.4216 9.18352C14.0066 8.26702 14.0066 6.72652 13.4216 5.80999C13.2071 5.47199 12.9731 5.15349 12.7326 4.85449" stroke="#4C0497" stroke-linecap="round" stroke-linejoin="round"/>
    <path d="M9.78149 7.95508C9.61249 8.87158 8.86499 9.61908 7.94849 9.78808" stroke="#4C0497" stroke-linecap="round" stroke-linejoin="round"/>
</svg>