<svg width="14" height="17" viewBox="0 0 14 17" fill="none" xmlns="http://www.w3.org/2000/svg">
<path fill-rule="evenodd" clip-rule="evenodd" d="M0.777778 0C0.348227 0 0 0.345965 0 0.772727V16.2273C0 16.654 0.348227 17 0.777778 17C1.20733 17 1.55556 16.654 1.55556 16.2273V9.73505C1.91802 9.55578 2.49101 9.30588 3.10529 9.15334C4.20709 8.87972 5.09132 8.98071 5.57511 9.70159C6.47811 11.0472 8.2026 11.1658 9.5298 11.0344C10.9303 10.8958 12.316 10.4401 13.0164 10.1827C13.6319 9.95659 14 9.37596 14 8.76335V3.64988C14 2.45107 12.7227 1.75119 11.7047 2.20985C10.8792 2.58182 9.78242 2.99722 8.7913 3.13441C7.75437 3.27796 7.15213 3.08372 6.86933 2.66239C5.84897 1.1418 4.10323 0.961783 2.85206 1.06537C2.37176 1.10514 1.92546 1.18858 1.55556 1.27692V0.772727C1.55556 0.345965 1.20733 0 0.777778 0ZM1.55556 2.87537V8.04C1.89842 7.9009 2.29924 7.7605 2.72803 7.65402C3.95957 7.34817 5.79756 7.24718 6.86933 8.84425C7.24158 9.39899 8.09939 9.62285 9.37557 9.49659C10.559 9.37944 11.7773 8.98844 12.4444 8.74511V3.64988C12.4444 3.61477 12.373 3.60572 12.3472 3.61734C11.4781 4.00894 10.2197 4.49706 9.00597 4.66508C7.83813 4.82676 6.38587 4.72793 5.57511 3.51968C5.03991 2.72219 4.06342 2.51589 2.98125 2.60548C2.42982 2.65114 1.91665 2.7712 1.55556 2.87537Z" fill="url(#paint0_linear_1083_11484)" fill-opacity="0.7"/>
<defs>
<linearGradient id="paint0_linear_1083_11484" x1="7" y1="0" x2="7" y2="17" gradientUnits="userSpaceOnUse">
<stop stop-color="#4C0497"/>
<stop offset="1" stop-color="#4C0497" stop-opacity="0.5"/>
</linearGradient>
</defs>
</svg>
