<svg width="23" height="23" viewBox="0 0 23 23" fill="none" xmlns="http://www.w3.org/2000/svg">
    <path d="M21.9966 20.72L21.7154 17.9612C21.7003 17.8122 21.6342 17.6729 21.5282 17.567L15.2531 11.2916C15.6398 10.3833 15.8387 9.40608 15.8377 8.41886C15.8377 4.32812 12.5093 1 8.41853 1C4.32779 1.00033 1 4.32845 1 8.41918C1 12.5096 4.32779 15.8377 8.41821 15.8377C9.46107 15.8377 10.5004 15.6138 11.4518 15.1874L14.0765 17.8118C14.1859 17.9212 14.3306 17.988 14.4848 18.0003C14.639 18.0127 14.7925 17.9697 14.9179 17.8792L15.1727 17.6953L15.2597 17.7698L15.065 18.22C15.0134 18.3397 14.999 18.4722 15.0236 18.6003C15.0481 18.7283 15.1105 18.8461 15.2027 18.9383L16.4418 20.1768C16.5539 20.2901 16.7042 20.3577 16.8633 20.3662L17.7044 20.4164L18.1106 21.595C18.1628 21.7467 18.2693 21.8738 18.4095 21.9518C18.5497 22.0298 18.7139 22.0532 18.8703 22.0174L21.4937 21.4205C21.6486 21.3853 21.7853 21.2946 21.878 21.1656C21.9706 21.0366 22.0128 20.8781 21.9966 20.72ZM19.1512 20.6188L18.7935 19.5805C18.7515 19.4586 18.6742 19.3519 18.5715 19.274C18.4687 19.1961 18.3451 19.1505 18.2164 19.1431L17.1875 19.0815L16.436 18.33L16.6459 17.845C16.7011 17.7173 16.7139 17.5753 16.6824 17.4398C16.651 17.3043 16.5769 17.1825 16.4711 17.0921L15.6294 16.3738C15.5185 16.2791 15.379 16.2244 15.2333 16.2184C15.0876 16.2124 14.944 16.2556 14.8258 16.3409L14.6054 16.4998L12.0445 13.9385C11.946 13.8399 11.8184 13.7756 11.6806 13.755C11.5428 13.7344 11.402 13.7585 11.2789 13.8239C10.3988 14.2939 9.41596 14.5386 8.41821 14.5361C5.04582 14.5361 2.30195 11.7922 2.30195 8.41951C2.30195 5.0468 5.04582 2.3026 8.41821 2.30293C11.7909 2.30293 14.5354 5.04712 14.5354 8.41984C14.5354 9.36701 14.318 10.2826 13.8897 11.1419C13.8288 11.264 13.8079 11.4022 13.8299 11.5369C13.8518 11.6716 13.9156 11.796 14.0121 11.8925L20.4444 18.3244L20.6432 20.2793L19.1512 20.6188Z" fill="#707070" fill-opacity="0.3"/>
    <path d="M15.0191 18.2002L15.0191 18.2001L15.1991 17.7838L15.1701 17.7589L14.9472 17.9197C14.8121 18.0172 14.6468 18.0635 14.4808 18.0502C14.3148 18.0369 14.1589 17.9649 14.0411 17.8472L11.4407 15.247C10.4915 15.6672 9.45668 15.8877 8.41821 15.8877C4.30018 15.8877 0.95 12.5372 0.95 8.41918C0.95 4.30083 4.30018 0.950328 8.41853 0.95C12.5369 0.95 15.8877 4.30048 15.8877 8.41881L15.0191 18.2002ZM15.0191 18.2002C14.9636 18.3292 14.948 18.4718 14.9744 18.6097C15.0009 18.7476 15.0681 18.8744 15.1673 18.9737L15.1673 18.9737M15.0191 18.2002L15.1673 18.9737M15.1673 18.9737L16.4063 20.212C16.4063 20.212 16.4063 20.212 16.4064 20.2121C16.5272 20.3342 16.6891 20.4069 16.8606 20.4162L17.668 20.4643L18.0633 21.6112C18.0633 21.6112 18.0633 21.6112 18.0633 21.6112C18.1195 21.7746 18.2342 21.9115 18.3852 21.9955C18.5362 22.0795 18.713 22.1046 18.8814 22.0662L21.5048 21.4693C21.5048 21.4693 21.5048 21.4693 21.5048 21.4693C21.6716 21.4314 21.8188 21.3337 21.9186 21.1948C22.0183 21.0558 22.0638 20.8851 22.0464 20.715L21.7651 17.9562M15.1673 18.9737L21.7651 17.9562M16.6918 17.8648L16.6918 17.8649L16.4954 18.3187L17.2094 19.0328L18.2193 19.0931C18.2193 19.0931 18.2193 19.0931 18.2194 19.0931M16.6918 17.8648L18.5715 19.274C18.4687 19.1961 18.3451 19.1505 18.2164 19.1431L18.2194 19.0931M16.6918 17.8648C16.7512 17.7273 16.765 17.5744 16.7311 17.4285C16.6972 17.2826 16.6175 17.1514 16.5036 17.0541L16.4711 17.0921M16.6918 17.8648L16.6459 17.845C16.7011 17.7173 16.7139 17.5753 16.6824 17.4398C16.651 17.3043 16.5769 17.1825 16.4711 17.0921M18.2194 19.0931C18.358 19.1012 18.491 19.1503 18.6017 19.2342C18.7123 19.3181 18.7955 19.4329 18.8408 19.5642L19.1839 20.5601M18.2194 19.0931L19.1839 20.5601M19.1839 20.5601L20.589 20.2404L20.3964 18.3472L13.9767 11.9278C13.8728 11.8239 13.8042 11.69 13.7805 11.545C13.7569 11.3999 13.7794 11.2511 13.8449 11.1196L13.8449 11.1196C14.2699 10.2671 14.4854 9.35914 14.4854 8.41984C14.4854 5.07474 11.7633 2.35293 8.4182 2.35293C5.07344 2.35261 2.35195 5.07441 2.35195 8.41951C2.35195 11.7646 5.07344 14.4861 8.41821 14.4861H8.41833C9.40783 14.4886 10.3825 14.2459 11.2554 13.7798L11.2555 13.7798C11.388 13.7093 11.5396 13.6833 11.688 13.7055C11.8364 13.7277 11.9738 13.797 12.0798 13.9031M19.1839 20.5601L8.41821 14.5361C9.41596 14.5386 10.3988 14.2939 11.2789 13.8239C11.402 13.7585 11.5428 13.7344 11.6806 13.755C11.8184 13.7756 11.946 13.8399 12.0445 13.9385M12.0798 13.9031L12.0445 13.9385M12.0798 13.9031L12.0798 13.9031L12.0445 13.9385M12.0798 13.9031L14.6107 16.4343M12.0445 13.9385L14.6054 16.4998M14.6107 16.4343L14.5762 16.4592L14.6054 16.4998M14.6107 16.4343L14.6408 16.4644L14.6054 16.4998M14.6107 16.4343L14.7965 16.3004M14.6054 16.4998L14.8258 16.3409M14.8258 16.3409L14.7965 16.3004M14.8258 16.3409C14.944 16.2556 15.0876 16.2124 15.2333 16.2184C15.379 16.2244 15.5185 16.2791 15.6294 16.3738M14.8258 16.3409L14.7965 16.3004L14.7965 16.3004M14.7965 16.3004C14.9239 16.2085 15.0784 16.162 15.2353 16.1684C15.3922 16.1749 15.5424 16.2338 15.6619 16.3358M15.6294 16.3738L15.6619 16.3358L15.6619 16.3358M15.6294 16.3738L16.4711 17.0921M15.6294 16.3738L15.6619 16.3358M15.6619 16.3358L16.5036 17.0541L16.4711 17.0921M21.7651 17.9562C21.7489 17.7957 21.6777 17.6457 21.5636 17.5317C21.5636 17.5317 21.5636 17.5317 21.5636 17.5317L15.3123 11.2801M21.7651 17.9562L15.3123 11.2801M15.3123 11.2801C15.693 10.3744 15.8887 9.40154 15.8877 8.41886L15.3123 11.2801Z" stroke="#707070" stroke-opacity="0.3" stroke-width="0.1"/>
</svg>