<svg width="23" height="24" viewBox="0 0 23 24" fill="none" xmlns="http://www.w3.org/2000/svg">
<path d="M0.9 12.025C0.9 18.1393 5.66523 23.15 11.5 23.15C17.3348 23.15 22.1 18.1393 22.1 12.025C22.1 5.91068 17.3348 0.9 11.5 0.9C5.66523 0.9 0.9 5.91068 0.9 12.025ZM11.5 21.1125C11.3661 21.1125 11.1994 21.0275 11.0094 20.8265C10.8218 20.6282 10.6246 20.3304 10.4302 19.9392C10.0526 19.1793 9.69286 18.0818 9.43299 16.7188H13.567C13.3071 18.0818 12.9474 19.1793 12.5698 19.9392C12.3754 20.3304 12.1782 20.6282 11.9906 20.8265C11.8006 21.0275 11.6339 21.1125 11.5 21.1125ZM18.9423 16.7188C17.9376 18.4813 16.3364 19.8405 14.4934 20.5724C14.968 19.5094 15.3621 18.1536 15.6094 16.7188H18.9423ZM7.39058 16.7188C7.63795 18.1536 8.03203 19.5094 8.5066 20.5724C6.66359 19.8405 5.06237 18.4813 4.05767 16.7188H7.39058ZM20.15 12.025C20.15 12.9041 19.9877 13.8716 19.8188 14.6812H15.8971C15.975 13.7943 15.975 12.9083 15.975 12.0273V12.025V12.0206C15.975 11.1438 15.975 10.2571 15.8199 9.36875H19.739C19.9865 10.1735 20.15 11.1431 20.15 12.025ZM13.9475 14.6812H9.14002C9.05586 13.8786 8.975 12.9939 8.975 12.025C8.975 11.0561 9.05586 10.1714 9.14002 9.36875H13.9475C14.0316 10.1714 14.1125 11.0561 14.1125 12.025C14.1125 12.9939 14.0316 13.8786 13.9475 14.6812ZM3.26102 9.36875H7.19043C7.1125 10.2557 7.1125 11.1417 7.1125 12.0226V12.025V12.0274C7.1125 12.9083 7.1125 13.7943 7.19043 14.6812H3.26102C3.01347 13.8765 2.85 12.9069 2.85 12.025C2.85 11.1431 3.01347 10.1735 3.26102 9.36875ZM14.4934 3.47759C16.3364 4.20948 17.9376 5.56873 18.9423 7.33125H15.6094C15.3621 5.89638 14.968 4.54064 14.4934 3.47759ZM13.6545 7.33125H9.43304C9.69388 5.96922 10.0745 4.87237 10.4729 4.11278C10.678 3.72172 10.886 3.42369 11.0818 3.22494C11.2803 3.02344 11.4528 2.9375 11.5875 2.9375C11.7214 2.9375 11.8881 3.02254 12.0781 3.22347C12.2657 3.42184 12.4629 3.71958 12.6573 4.11083C13.0349 4.87074 13.3946 5.96816 13.6545 7.33125ZM8.50651 3.47777C8.03199 4.5408 7.63793 5.89646 7.39058 7.33125H4.0642C5.14373 5.56636 6.67222 4.20869 8.50651 3.47777Z" fill="url(#paint0_linear_1083_7809)" stroke="#545FDD" stroke-width="0.2"/>
<defs>
<linearGradient id="paint0_linear_1083_7809" x1="11.5" y1="1" x2="11.5" y2="23.05" gradientUnits="userSpaceOnUse">
<stop stop-color="#4C0497"/>
<stop offset="1" stop-color="#4C0497" stop-opacity="0.5"/>
</linearGradient>
</defs>
</svg>
