<svg width="16" height="15" viewBox="0 0 16 15" fill="none" xmlns="http://www.w3.org/2000/svg">
<path d="M4.88889 3.72861L1 7.50001M1 7.50001L4.88889 11.2714M1 7.50001H10.3333M8 3.72861C8 3.50564 8 3.39416 8.00856 3.29761C8.09738 2.29396 8.85952 1.4681 9.87831 1.27169C9.97631 1.25283 10.0907 1.24046 10.3191 1.21587L11.1135 1.13026C12.307 1.00166 12.9037 0.93739 13.3778 1.08447C14.0099 1.28066 14.526 1.72863 14.7969 2.31622C15 2.75694 15 3.33917 15 4.50378V10.4962C15 11.6608 15 12.2431 14.7969 12.6838C14.526 13.2714 14.0099 13.7193 13.3778 13.9155C12.9037 14.0626 12.307 13.9983 11.1135 13.8697L10.3191 13.7841C10.0906 13.7595 9.97633 13.7472 9.87831 13.7283C8.85952 13.5319 8.09738 12.706 8.00856 11.7024C8 11.6058 8 11.4943 8 11.2714" stroke="url(#paint0_linear_1083_4679)" stroke-opacity="0.7" stroke-width="1.5" stroke-linecap="round" stroke-linejoin="round"/>
<defs>
<linearGradient id="paint0_linear_1083_4679" x1="8" y1="14" x2="8" y2="1" gradientUnits="userSpaceOnUse">
<stop stop-color="#4C0497"/>
<stop offset="0.9999" stop-color="#4C0497" stop-opacity="0.5"/>
<stop offset="1" stop-color="#4C0497" stop-opacity="0.5"/>
</linearGradient>
</defs>
</svg>
