<svg width="24" height="22" viewBox="0 0 24 22" fill="none" xmlns="http://www.w3.org/2000/svg">
  <path d="M7.11111 5.19785L1 11M1 11L7.11111 16.8021M1 11H15.6667M12 5.19785C12 4.85483 12 4.68332 12.0134 4.53478C12.153 2.99071 13.3507 1.72016 14.9516 1.41798C15.1056 1.38897 15.2853 1.36994 15.6442 1.33211L16.8926 1.2004C18.7681 1.00255 19.7059 0.903677 20.4509 1.12996C21.4442 1.43179 22.2552 2.12097 22.6808 3.02495C23 3.70299 23 4.59872 23 6.39043V15.6096C23 17.4012 23 18.297 22.6808 18.975C22.2552 19.8791 21.4442 20.5682 20.4509 20.87C19.7059 21.0964 18.7681 20.9974 16.8926 20.7996L15.6442 20.6679C15.2852 20.63 15.1057 20.6111 14.9516 20.582C13.3507 20.2798 12.153 19.0092 12.0134 17.4652C12 17.3166 12 17.1451 12 16.8021" stroke="url(#paint0_linear_1083_19351)" stroke-opacity="0.7" stroke-width="2" stroke-linecap="round" stroke-linejoin="round"/>
  <defs>
    <linearGradient id="paint0_linear_1083_19351" x1="12" y1="21" x2="12" y2="1" gradientUnits="userSpaceOnUse">
      <stop stop-color="#4C0497"/>
      <stop offset="0.9999" stop-color="#4C0497" stop-opacity="0.5"/>
      <stop offset="1" stop-color="#4C0497" stop-opacity="0.5"/>
    </linearGradient>
  </defs>
</svg>