<svg width="634" height="388" viewBox="0 0 634 388" fill="none" xmlns="http://www.w3.org/2000/svg">
<path d="M372.18 69.15H361.95V48.09C361.95 27.21 344.97 10.23 324.09 10.23C303.21 10.23 286.23 27.21 286.23 48.09V69.15H276V48.09C276 21.57 297.57 0 324.09 0C350.61 0 372.18 21.57 372.18 48.09V69.15Z" fill="#F29100"/>
<path d="M24.53 213.27C17.09 210.38 11.29 206.21 7.11 200.77C2.93 195.33 0.59 188.73 0.08 180.99L0 179.47H28.7L28.87 180.31C29.43 182.95 30.73 185.23 32.78 187.17C34.83 189.11 37.45 190.62 40.65 191.71C43.85 192.8 47.41 193.35 51.34 193.35C55.27 193.35 58.96 192.8 61.9 191.71C64.85 190.62 67.13 189.12 68.76 187.21C70.39 185.3 71.2 183.09 71.2 180.56V180.48C71.2 177.06 69.71 174.41 66.74 172.53C63.77 170.65 58.72 169.04 51.59 167.69L39.13 165.25C27.12 163.01 17.99 158.95 11.73 153.09C5.47 147.23 2.35 139.64 2.35 130.32V130.24C2.35 122.44 4.43 115.67 8.58 109.91C12.73 104.16 18.44 99.6995 25.71 96.5295C32.98 93.3595 41.24 91.7695 50.5 91.7695C60.66 91.7695 69.3 93.2695 76.42 96.2695C83.55 99.2695 89.06 103.5 92.96 108.94C96.86 114.38 98.98 120.78 99.31 128.13L99.39 129.9H70.69L70.61 128.97C70.27 126.28 69.23 123.98 67.5 122.07C65.76 120.16 63.46 118.68 60.6 117.61C57.74 116.54 54.46 116.01 50.75 116.01C47.04 116.01 43.79 116.54 41.15 117.61C38.51 118.68 36.51 120.12 35.13 121.94C33.75 123.76 33.07 125.83 33.07 128.13V128.21C33.07 131.47 34.56 134.05 37.53 135.95C40.5 137.86 45.24 139.43 51.75 140.66L64.21 143.02C72.85 144.65 79.95 146.95 85.5 149.92C91.06 152.89 95.18 156.67 97.87 161.24C100.56 165.81 101.91 171.36 101.91 177.86V177.94C101.91 186.02 99.89 193.03 95.85 198.98C91.81 204.93 85.97 209.52 78.34 212.74C70.71 215.97 61.53 217.58 50.82 217.58C40.72 217.58 31.95 216.13 24.52 213.25L24.53 213.27Z" fill="#683C89"/>
<path d="M128.58 211.581C121.62 207.741 116.28 202.251 112.55 195.121C108.82 188.001 106.95 179.491 106.95 169.621V169.541C106.95 159.721 108.81 151.251 112.55 144.121C116.28 136.991 121.56 131.501 128.37 127.621C135.19 123.751 143.23 121.811 152.48 121.811C161.73 121.811 169.76 123.701 176.55 127.491C183.34 131.281 188.59 136.611 192.29 143.481C195.99 150.351 197.85 158.421 197.85 167.681V176.431H121.59V158.761H183.88L169.99 175.341V163.811C169.99 159.381 169.29 155.601 167.89 152.491C166.49 149.381 164.52 147.021 162 145.421C159.48 143.821 156.53 143.021 153.16 143.021C149.79 143.021 146.83 143.831 144.28 145.461C141.73 147.091 139.75 149.461 138.35 152.571C136.95 155.681 136.25 159.431 136.25 163.811V175.431C136.25 179.751 136.97 183.461 138.4 186.541C139.83 189.631 141.88 192.001 144.54 193.651C147.2 195.311 150.39 196.131 154.09 196.131C157.29 196.131 160.01 195.631 162.25 194.611C164.49 193.601 166.28 192.371 167.59 190.911C168.91 189.451 169.79 188.081 170.24 186.791L170.32 186.451H197.25L197 187.461C196.33 190.661 195.04 193.981 193.13 197.431C191.22 200.881 188.57 204.121 185.18 207.151C181.78 210.181 177.49 212.641 172.3 214.521C167.11 216.401 160.84 217.341 153.49 217.341C143.84 217.341 135.53 215.421 128.58 211.571V211.581Z" fill="#683C89"/>
<path d="M265.42 186.46L265.34 186.79C264.89 188.08 264.01 189.46 262.69 190.92C261.37 192.38 259.59 193.61 257.34 194.62C255.1 195.63 252.38 196.14 249.18 196.14C248.16 196.14 247.19 196.08 246.25 195.94L244.87 206.8C249.83 210.3 254.79 213.53 259.75 216.49C262.52 216.03 265.06 215.37 267.4 214.53C272.59 212.65 276.88 210.19 280.28 207.16C283.67 204.13 286.33 200.89 288.23 197.44C290.14 193.99 291.43 190.67 292.11 187.47L292.36 186.46H265.42ZM287.39 143.49C283.69 136.62 278.44 131.28 271.65 127.5C266.91 124.85 261.57 123.13 255.62 122.34C253.05 121.99 250.37 121.82 247.58 121.82C246.2 121.82 244.85 121.86 243.52 121.95C235.95 122.44 229.26 124.33 223.47 127.62C216.65 131.5 211.37 136.99 207.64 144.12C203.91 151.25 202.05 159.72 202.05 169.54V169.62C202.05 179.5 203.91 188 207.64 195.13C211.37 202.25 216.72 207.74 223.68 211.58C227.79 213.85 232.39 215.46 237.45 216.39C236.6 215.77 235.75 215.14 234.88 214.5L232.07 212.43L235.01 189.21C234.43 188.39 233.92 187.5 233.48 186.54C232.16 183.7 231.46 180.33 231.36 176.44H292.95V167.69C292.95 158.43 291.1 150.36 287.39 143.49ZM231.7 158.77C232.03 156.48 232.61 154.42 233.44 152.58C234.84 149.46 236.82 147.09 239.37 145.47C239.78 145.21 240.2 144.97 240.64 144.76C242.89 143.6 245.43 143.03 248.25 143.03C249.91 143.03 251.46 143.22 252.91 143.61C254.41 144.01 255.81 144.61 257.09 145.42C259.62 147.02 261.58 149.38 262.98 152.5C263.82 154.35 264.41 156.44 264.74 158.77H231.7Z" fill="#683C89"/>
<path d="M319.39 213.059C312.96 210.309 307.87 206.409 304.11 201.359C300.35 196.309 298.22 190.419 297.71 183.689L297.63 182.599H304.28L304.36 183.689C304.92 189.189 306.81 193.989 310.04 198.079C313.27 202.179 317.59 205.359 323 207.629C328.41 209.899 334.66 211.039 341.73 211.039C348.8 211.039 354.89 209.929 360.16 207.719C365.43 205.499 369.53 202.399 372.45 198.419C375.37 194.439 376.83 189.779 376.83 184.449V184.369C376.83 177.529 374.54 172.079 369.97 168.039C365.4 163.999 357.75 160.749 347.03 158.279L333.98 155.329C322.36 152.639 313.91 148.779 308.6 143.759C303.3 138.739 300.65 132.099 300.65 123.849V123.679C300.71 117.559 302.44 112.139 305.87 107.389C309.29 102.649 313.98 98.9292 319.93 96.2392C325.88 93.5492 332.64 92.1992 340.22 92.1992C347.8 92.1992 354.75 93.5892 360.76 96.3692C366.76 99.1492 371.56 103.059 375.15 108.109C378.74 113.159 380.79 119.019 381.29 125.699L381.37 126.789H374.8L374.63 125.699C374.13 120.139 372.36 115.329 369.33 111.259C366.3 107.189 362.3 104.019 357.34 101.749C352.37 99.4792 346.64 98.3392 340.13 98.3392C333.62 98.3392 328 99.4092 323.09 101.539C318.18 103.669 314.34 106.629 311.56 110.419C308.78 114.209 307.39 118.599 307.39 123.589V123.669C307.39 130.239 309.66 135.549 314.21 139.619C318.75 143.689 326.02 146.869 336.01 149.169L349.14 152.199C357.39 154.049 364.04 156.379 369.09 159.189C374.14 161.999 377.81 165.419 380.12 169.459C382.42 173.499 383.57 178.379 383.57 184.109V184.189C383.57 190.809 381.82 196.589 378.31 201.529C374.8 206.469 369.89 210.309 363.58 213.059C357.27 215.809 349.9 217.179 341.49 217.179C333.08 217.179 325.82 215.799 319.4 213.059H319.39Z" fill="#683C89"/>
<path d="M407.75 211.289C401.89 207.639 397.33 202.419 394.07 195.629C390.82 188.839 389.19 180.839 389.19 171.639V171.469C389.19 162.209 390.82 154.219 394.07 147.479C397.32 140.749 401.88 135.559 407.75 131.909C413.61 128.259 420.42 126.439 428.16 126.439C435.9 126.439 442.71 128.259 448.57 131.909C454.43 135.559 459.01 140.749 462.29 147.479C465.57 154.209 467.21 162.209 467.21 171.469V171.639C467.21 180.899 465.57 188.919 462.29 195.709C459.01 202.499 454.43 207.719 448.57 211.369C442.71 215.019 435.9 216.839 428.16 216.839C420.42 216.779 413.61 214.929 407.75 211.289ZM445.25 206.199C450.13 203.029 453.92 198.499 456.61 192.609C459.3 186.719 460.65 179.729 460.65 171.649V171.479C460.65 163.399 459.29 156.429 456.57 150.559C453.85 144.699 450.05 140.189 445.17 137.049C440.29 133.909 434.62 132.339 428.17 132.339C421.72 132.339 415.98 133.929 411.13 137.089C406.28 140.259 402.5 144.759 399.81 150.599C397.12 156.439 395.77 163.389 395.77 171.469V171.639C395.77 179.719 397.12 186.709 399.81 192.599C402.5 198.489 406.28 203.009 411.13 206.149C415.98 209.289 421.66 210.889 428.17 210.949C434.68 210.949 440.38 209.369 445.26 206.189L445.25 206.199Z" fill="#683C89"/>
<path d="M491.9 211.289C486.04 207.639 481.48 202.419 478.22 195.629C474.97 188.839 473.34 180.839 473.34 171.639V171.469C473.34 162.209 474.97 154.219 478.22 147.479C481.47 140.749 486.03 135.559 491.9 131.909C497.76 128.259 504.57 126.439 512.31 126.439C520.05 126.439 526.86 128.259 532.72 131.909C538.58 135.559 543.16 140.749 546.44 147.479C549.72 154.209 551.36 162.209 551.36 171.469V171.639C551.36 180.899 549.72 188.919 546.44 195.709C543.16 202.499 538.58 207.719 532.72 211.369C526.86 215.019 520.05 216.839 512.31 216.839C504.57 216.779 497.76 214.929 491.9 211.289ZM529.4 206.199C534.28 203.029 538.07 198.499 540.76 192.609C543.45 186.719 544.8 179.729 544.8 171.649V171.479C544.8 163.399 543.44 156.429 540.72 150.559C538 144.699 534.2 140.189 529.32 137.049C524.44 133.909 518.77 132.339 512.32 132.339C505.87 132.339 500.13 133.929 495.28 137.089C490.43 140.259 486.65 144.759 483.96 150.599C481.27 156.439 479.92 163.389 479.92 171.469V171.639C479.92 179.719 481.27 186.709 483.96 192.599C486.65 198.489 490.43 203.009 495.28 206.149C500.13 209.289 505.81 210.889 512.32 210.949C518.83 210.949 524.53 209.369 529.41 206.189L529.4 206.199Z" fill="#683C89"/>
<path d="M627.1 192.351H626.93C625.64 196.951 623.46 201.091 620.41 204.771C617.35 208.451 613.62 211.381 609.22 213.571C604.81 215.761 599.89 216.851 594.45 216.851C587.16 216.851 580.73 214.971 575.18 211.211C569.62 207.451 565.29 202.181 562.18 195.391C559.07 188.601 557.51 180.691 557.51 171.651V171.571C557.51 162.591 559.08 154.721 562.22 147.961C565.36 141.201 569.72 135.921 575.31 132.141C580.89 128.351 587.3 126.461 594.54 126.461C599.93 126.461 604.81 127.551 609.19 129.741C613.57 131.931 617.28 134.921 620.34 138.701C623.4 142.491 625.6 146.711 626.95 151.371H627.12V127.891H633.6V244.881H627.12V192.361L627.1 192.351ZM611.86 205.941C616.63 202.601 620.36 197.991 623.05 192.091C625.74 186.201 627.09 179.381 627.09 171.641V171.561C627.09 163.761 625.74 156.931 623.05 151.061C620.36 145.191 616.62 140.611 611.86 137.301C607.09 133.991 601.59 132.331 595.36 132.331C589.13 132.331 583.74 133.991 579.03 137.301C574.32 140.611 570.64 145.181 568 151.021C565.36 156.861 564.04 163.701 564.04 171.561V171.641C564.04 179.501 565.34 186.371 567.95 192.261C570.56 198.151 574.22 202.741 578.93 206.021C583.64 209.301 589.11 210.941 595.34 210.941C601.57 210.941 607.07 209.271 611.84 205.931L611.86 205.941Z" fill="#683C89"/>
<path d="M35.8299 387C25.2399 387 17.0599 384.54 11.2899 379.61C5.51988 374.68 2.62988 367.77 2.62988 358.88C2.62988 355.57 3.08988 351.99 4.00988 348.13C4.92988 344.27 6.19988 340.43 7.80988 336.61L15.4199 338.93C13.9499 341.87 12.7899 344.92 11.9499 348.08C11.0999 351.24 10.6799 354.15 10.6799 356.79C10.6799 362.75 12.5699 367.36 16.3599 370.63C20.1499 373.9 25.4599 375.54 32.2999 375.54H39.3599C48.3299 375.54 54.8599 374.11 58.9399 371.24C63.0199 368.37 65.0599 363.74 65.0599 357.34V352.49H64.3999C63.3699 355.21 61.6599 357.31 59.2699 358.78C56.8799 360.25 54.0299 360.99 50.7199 360.99C44.7599 360.99 40.1699 359.37 36.9299 356.14C33.6899 352.91 32.0799 348.42 32.0799 342.68C32.0799 339.3 32.5899 336.12 33.6199 333.14C34.6499 330.16 36.0599 327.55 37.8699 325.31C39.6699 323.07 41.8199 321.3 44.3199 320.02C46.8199 318.73 49.5799 318.09 52.5899 318.09C59.2099 318.09 64.3399 321.1 67.9699 327.13C71.6099 333.16 73.3899 341.62 73.3199 352.5C73.3199 358.53 72.5799 363.71 71.1099 368.05C69.6399 372.39 67.3799 375.97 64.3299 378.8C61.2799 381.63 57.3799 383.71 52.6399 385.03C47.8999 386.35 42.2899 387.02 35.8199 387.02L35.8299 387ZM44.2199 305.61C42.6799 305.61 41.4299 305.15 40.4699 304.23C39.5099 303.31 39.0399 301.86 39.0399 299.87C39.0399 297.88 39.5199 296.32 40.4699 295.4C41.4199 294.48 42.6799 294.02 44.2199 294.02H45.6499C47.1199 294.02 48.3299 294.48 49.2899 295.4C50.2399 296.32 50.7199 297.81 50.7199 299.87C50.7199 301.93 50.2399 303.31 49.2899 304.23C48.3299 305.15 47.1199 305.61 45.6499 305.61H44.2199ZM53.1499 349.94C56.3099 349.94 58.8099 349.68 60.6499 349.17C62.4899 348.66 63.9599 347.85 65.0599 346.74C64.9099 341.3 63.6599 336.96 61.3099 333.73C58.9599 330.5 55.7999 328.88 51.8299 328.88C48.2299 328.88 45.4299 330.02 43.4499 332.3C41.4599 334.58 40.4699 337.59 40.4699 341.34C40.4699 344.36 41.3099 346.54 43.0099 347.9C44.6999 349.26 47.3099 349.94 50.8399 349.94H53.1599H53.1499ZM59.0999 305.61C57.5599 305.61 56.2999 305.15 55.3499 304.23C54.3899 303.31 53.9199 301.86 53.9199 299.87C53.9199 297.88 54.3999 296.32 55.3499 295.4C56.2999 294.48 57.5599 294.02 59.0999 294.02H60.5299C61.9999 294.02 63.2099 294.48 64.1699 295.4C65.1199 296.32 65.5999 297.81 65.5999 299.87C65.5999 301.93 65.1199 303.31 64.1699 304.23C63.2099 305.15 61.9999 305.61 60.5299 305.61H59.0999Z" fill="#683C89"/>
<path d="M80.6098 376.41H86.6798C94.6198 376.41 100.76 375.03 105.1 372.27C109.44 369.51 112.19 365.67 113.37 360.75H100.36C94.4798 360.75 89.8999 359.17 86.6299 356.01C83.3599 352.85 81.7198 348.4 81.7198 342.67C81.7198 339.29 82.2298 336.11 83.2598 333.13C84.2898 330.15 85.7199 327.54 87.5599 325.3C89.3999 323.06 91.5698 321.29 94.0698 320.01C96.5698 318.72 99.3299 318.08 102.34 318.08C108.59 318.08 113.5 320.84 117.06 326.35C120.63 331.86 122.41 339.58 122.41 349.51V349.95H127.59V358.33L125.16 360.76H121.3C119.61 369.21 115.91 375.74 110.22 380.34C104.52 384.93 96.7498 387.23 86.8898 387.23H80.5999V376.42L80.6098 376.41ZM90.0899 341.34C90.0899 344.36 90.9498 346.54 92.6798 347.9C94.4098 349.26 97.0398 349.94 100.57 349.94H114.02V347.07C114.02 341.56 112.9 337.15 110.66 333.84C108.42 330.53 105.35 328.88 101.45 328.88C97.8499 328.88 95.0498 330.02 93.0698 332.3C91.0798 334.58 90.0899 337.59 90.0899 341.34Z" fill="#683C89"/>
<path d="M125.16 352.369L127.59 349.939H139.39V358.319L136.96 360.749H125.16V352.369Z" fill="#683C89"/>
<path d="M136.97 352.369L139.4 349.939H151.2V358.319L148.77 360.749H136.97V352.369Z" fill="#683C89"/>
<path d="M148.77 352.369L151.2 349.939H163V358.319L160.57 360.749H148.77V352.369Z" fill="#683C89"/>
<path d="M160.57 352.369L163 349.939H174.8V358.319L172.37 360.749H160.57V352.369Z" fill="#683C89"/>
<path d="M172.37 352.369L174.8 349.939H186.6V358.319L184.17 360.749H172.37V352.369Z" fill="#683C89"/>
<path d="M184.17 352.369L186.6 349.939H189.8C191.27 349.939 192.56 349.809 193.66 349.549C194.76 349.289 195.76 348.849 196.64 348.229C197.52 347.609 198.33 346.779 199.07 345.749C199.8 344.719 200.58 343.399 201.39 341.779L206.13 332.629L213.3 336.159L207.79 346.749L208.78 347.299C211.35 348.769 213.67 349.799 215.73 350.389C217.79 350.979 219.88 351.269 222.02 351.269C225.4 351.269 227.9 350.479 229.52 348.899C231.14 347.319 231.95 344.649 231.95 340.899V332.629H240.55V340.949C240.55 344.719 241.06 347.379 242.09 348.939C243.12 350.489 244.92 351.269 247.49 351.269H249.7C252.2 351.269 253.98 350.489 255.05 348.939C256.11 347.389 256.65 344.729 256.65 340.959V328.219H265.25V340.899C265.25 346.929 268.26 349.939 274.29 349.939H278.26V358.319L275.83 360.749C270.76 360.749 266.82 359.909 264.03 358.209C261.24 356.519 259.32 353.869 258.3 350.269H257.75C257.31 354.609 256.17 357.659 254.33 359.419C252.49 361.179 249.84 362.069 246.39 362.069C238.82 362.069 234.37 358.139 233.05 350.269H232.5C231.76 354.089 230.35 357.019 228.25 359.039C226.15 361.059 223.42 362.069 220.03 362.069C217.9 362.069 215.65 361.669 213.3 360.859C210.95 360.049 208.34 358.729 205.47 356.889L202.27 354.909C200.14 357.259 197.67 358.829 194.88 359.599C192.09 360.369 188.52 360.759 184.18 360.759V352.379L184.17 352.369Z" fill="#683C89"/>
<path d="M275.81 352.369L278.24 349.939H281.77C285.08 349.939 287.49 349.189 288.99 347.679C290.5 346.169 291.25 343.759 291.25 340.459V279.139H300.29V340.459C300.29 347.449 298.84 352.569 295.93 355.839C293.02 359.109 288.3 360.749 281.76 360.749H275.8V352.369H275.81Z" fill="#683C89"/>
<path d="M315.07 279.139H324.22V360.749H315.07V279.139Z" fill="#683C89"/>
<path d="M388.08 362.069C380.29 362.069 373.72 361.669 368.39 360.859C363.06 360.049 358.76 358.729 355.49 356.889C352.22 355.049 349.87 352.659 348.43 349.719C347 346.779 346.28 343.139 346.28 338.799C346.28 335.859 346.68 332.809 347.49 329.649C348.3 326.489 349.48 323.069 351.02 319.389L358.52 321.599C355.58 327.699 354.11 332.919 354.11 337.259C354.11 341.599 356.21 344.889 360.4 346.909C364.59 348.929 371.28 349.939 380.47 349.939H397.78C403.74 349.939 408.72 349.739 412.72 349.329C416.73 348.929 419.91 348.189 422.26 347.119C424.61 346.049 426.29 344.639 427.28 342.869C428.27 341.109 428.77 338.829 428.77 336.029V332.169H428.22C427.19 334.739 425.46 336.729 423.04 338.129C420.61 339.529 417.75 340.229 414.44 340.229C408.56 340.229 403.98 338.699 400.71 335.649C397.44 332.599 395.8 328.319 395.8 322.799C395.8 319.489 396.31 316.369 397.34 313.419C398.37 310.479 399.8 307.909 401.64 305.699C403.48 303.489 405.65 301.769 408.15 300.519C410.65 299.269 413.41 298.649 416.42 298.649C422.89 298.649 427.96 301.439 431.64 307.029C435.32 312.619 437.15 320.369 437.15 330.299C437.15 336.699 436.45 341.929 435.05 346.019C433.65 350.099 431.13 353.339 427.5 355.729C423.86 358.119 418.86 359.769 412.5 360.689C406.14 361.609 398 362.069 388.07 362.069H388.08ZM416.87 329.649C419.96 329.649 422.42 329.389 424.26 328.879C426.1 328.369 427.57 327.589 428.67 326.559C428.52 321.339 427.27 317.189 424.92 314.099C422.57 311.009 419.44 309.469 415.55 309.469C411.95 309.469 409.15 310.589 407.17 312.829C405.19 315.069 404.19 317.959 404.19 321.489C404.19 324.359 405.05 326.439 406.78 327.719C408.51 329.009 411.14 329.649 414.67 329.649H416.88H416.87ZM415.65 286.199C414.11 286.199 412.86 285.739 411.9 284.819C410.94 283.899 410.47 282.449 410.47 280.459C410.47 278.469 410.95 276.909 411.9 275.989C412.86 275.069 414.11 274.609 415.65 274.609H417.08C418.55 274.609 419.76 275.069 420.72 275.989C421.67 276.909 422.15 278.399 422.15 280.459C422.15 282.519 421.67 283.899 420.72 284.819C419.76 285.739 418.55 286.199 417.08 286.199H415.65Z" fill="#683C89"/>
<path d="M444.44 376.41H450.51C458.45 376.41 464.59 375.03 468.93 372.27C473.27 369.51 476.02 365.67 477.2 360.75H464.19C458.31 360.75 453.73 359.17 450.46 356.01C447.19 352.85 445.55 348.4 445.55 342.67C445.55 339.29 446.06 336.11 447.09 333.13C448.12 330.15 449.55 327.54 451.39 325.3C453.23 323.06 455.4 321.29 457.9 320.01C460.4 318.72 463.16 318.08 466.17 318.08C472.42 318.08 477.33 320.84 480.89 326.35C484.45 331.86 486.24 339.58 486.24 349.51V349.95H491.42V358.33L488.99 360.76H485.13C483.44 369.21 479.74 375.74 474.05 380.34C468.35 384.93 460.58 387.23 450.72 387.23H444.43V376.42L444.44 376.41ZM453.92 341.34C453.92 344.36 454.78 346.54 456.51 347.9C458.24 349.26 460.87 349.94 464.39 349.94H477.85V347.07C477.85 341.56 476.73 337.15 474.49 333.84C472.25 330.53 469.18 328.88 465.28 328.88C461.68 328.88 458.88 330.02 456.9 332.3C454.91 334.58 453.92 337.59 453.92 341.34Z" fill="#683C89"/>
<path d="M488.99 352.369L491.42 349.939H503.22V358.319L500.79 360.749H488.99V352.369Z" fill="#683C89"/>
<path d="M500.79 352.369L503.22 349.939H515.02V358.319L512.59 360.749H500.79V352.369Z" fill="#683C89"/>
<path d="M512.59 352.369L515.02 349.939H526.82V358.319L524.39 360.749H512.59V352.369Z" fill="#683C89"/>
<path d="M524.4 352.369L526.83 349.939H538.63V358.319L536.2 360.749H524.4V352.369Z" fill="#683C89"/>
<path d="M536.2 352.369L538.63 349.939H550.43V358.319L548 360.749H536.2V352.369Z" fill="#683C89"/>
<path d="M548 352.369L550.43 349.939H553.63C555.1 349.939 556.39 349.809 557.49 349.549C558.59 349.289 559.58 348.849 560.47 348.229C561.35 347.609 562.16 346.779 562.9 345.749C563.63 344.719 564.41 343.399 565.22 341.779L569.96 332.629L577.13 336.159L571.62 346.749L572.61 347.299C574.96 348.769 577.22 349.799 579.39 350.389C581.56 350.979 583.71 351.269 585.84 351.269C589.22 351.269 591.72 350.479 593.34 348.899C594.96 347.319 595.77 344.649 595.77 340.899V332.629H604.37V340.949C604.37 344.719 604.9 347.379 605.97 348.939C607.04 350.489 608.85 351.269 611.43 351.269H613.42C617.9 351.269 620.15 348.909 620.15 344.179C620.15 343.069 620.08 341.599 619.93 339.749C619.78 337.899 619.52 335.909 619.16 333.769L618.28 327.679L626.77 326.569L627.54 332.309C627.83 334.589 628.05 336.759 628.2 338.819C628.35 340.879 628.42 342.639 628.42 344.109C628.42 349.849 627.06 354.279 624.34 357.399C621.62 360.519 617.65 362.089 612.43 362.089C607.87 362.089 604.34 361.099 601.84 359.109C599.34 357.119 597.69 354.189 596.88 350.289H596.33C595.59 354.109 594.18 357.039 592.08 359.059C589.98 361.079 587.28 362.089 583.97 362.089C581.76 362.089 579.48 361.669 577.13 360.819C574.78 359.979 572.17 358.669 569.3 356.899L566.1 354.919C563.97 357.269 561.5 358.839 558.71 359.609C555.92 360.379 552.35 360.769 548.01 360.769V352.389L548 352.369ZM591.89 320.169C590.35 320.169 589.1 319.709 588.14 318.789C587.18 317.869 586.71 316.419 586.71 314.429C586.71 312.439 587.19 310.879 588.14 309.959C589.09 309.039 590.35 308.579 591.89 308.579H593.32C594.79 308.579 596 309.039 596.96 309.959C597.92 310.879 598.39 312.369 598.39 314.429C598.39 316.489 597.91 317.869 596.96 318.789C596 319.709 594.79 320.169 593.32 320.169H591.89ZM599.28 306.269C597.81 306.269 596.61 305.829 595.7 304.949C594.78 304.069 594.32 302.669 594.32 300.759C594.32 298.849 594.78 297.429 595.7 296.509C596.62 295.589 597.81 295.129 599.28 295.129H600.71C602.18 295.129 603.39 295.589 604.35 296.509C605.3 297.429 605.78 298.839 605.78 300.759C605.78 302.679 605.3 304.069 604.35 304.949C603.39 305.829 602.18 306.269 600.71 306.269H599.28ZM606.67 320.169C605.13 320.169 603.89 319.709 602.98 318.789C602.06 317.869 601.6 316.419 601.6 314.429C601.6 312.439 602.06 310.879 602.98 309.959C603.9 309.039 605.13 308.579 606.67 308.579H608.1C609.64 308.579 610.89 309.039 611.85 309.959C612.8 310.879 613.28 312.369 613.28 314.429C613.28 316.489 612.8 317.869 611.85 318.789C610.89 319.709 609.64 320.169 608.1 320.169H606.67Z" fill="#683C89"/>
<path d="M259.75 216.491C256.36 217.061 252.64 217.351 248.59 217.351C244.54 217.351 240.94 217.031 237.45 216.391C268.17 238.921 286.3 250.131 323.49 250.131C355.1 250.121 371.73 242.021 394.56 225.891C350.84 247.901 305.44 243.771 259.75 216.491ZM250.61 63.9609L248.57 82.1009L243.52 121.951L240.64 144.761L238.86 158.771L236.63 176.441L235.01 189.211C236.24 191.031 237.79 192.511 239.63 193.651C241.56 194.851 243.77 195.621 246.25 195.941L248.73 176.441L250.98 158.771L252.91 143.611L255.62 122.341L260.74 82.1009L261.55 74.8509L393.89 75.9509V63.9609H250.61Z" fill="#F29100"/>
<path d="M259.75 216.491C256.36 217.061 252.64 217.351 248.59 217.351C244.54 217.351 240.94 217.031 237.45 216.391C236.6 215.771 235.75 215.141 234.88 214.501L232.07 212.431L235.01 189.211C236.24 191.031 237.79 192.511 239.63 193.651C241.56 194.851 243.77 195.621 246.25 195.941L244.87 206.801C249.83 210.301 254.79 213.531 259.75 216.491Z" fill="#683C89"/>
</svg>
