<svg width="18" height="18" viewBox="0 0 18 18" fill="none" xmlns="http://www.w3.org/2000/svg">
  <path d="M17 7.4V9.8C17 13 15.4 14.6 12.2 14.6H11.8C11.552 14.6 11.312 14.72 11.16 14.92L9.96 16.52C9.432 17.224 8.568 17.224 8.04 16.52L6.84 14.92C6.712 14.744 6.416 14.6 6.2 14.6H5.8C2.6 14.6 1 13.8 1 9.8V5.8C1 2.6 2.6 1 5.8 1H10.6" stroke="#4C0497" stroke-width="1.5" stroke-miterlimit="10" stroke-linecap="round" stroke-linejoin="round"/>
  <path d="M15 5C16.1046 5 17 4.10457 17 3C17 1.89543 16.1046 1 15 1C13.8954 1 13 1.89543 13 3C13 4.10457 13.8954 5 15 5Z" stroke="#F05A35" stroke-width="1.5" stroke-linecap="round" stroke-linejoin="round"/>
  <path d="M12.1973 8.19995H12.2046" stroke="#4C0497" stroke-width="1.5" stroke-linecap="round" stroke-linejoin="round"/>
  <path d="M8.99634 8.19995H9.00379" stroke="#4C0497" stroke-width="1.5" stroke-linecap="round" stroke-linejoin="round"/>
  <path d="M5.79565 8.19995H5.80309" stroke="#4C0497" stroke-width="1.5" stroke-linecap="round" stroke-linejoin="round"/>
</svg>