<svg width="27" height="27" viewBox="0 0 27 27" fill="none" xmlns="http://www.w3.org/2000/svg">
<path d="M27 22.0455C27 22.5315 26.8918 23.031 26.662 23.517C26.4321 24.003 26.1347 24.462 25.7426 24.894C25.0801 25.623 24.35 26.1495 23.5253 26.487C22.7141 26.8245 21.8353 27 20.8888 27C19.5098 27 18.0361 26.676 16.4812 26.0145C14.9264 25.353 13.3716 24.462 11.8302 23.3415C10.2593 22.1941 8.77695 20.9306 7.39559 19.5615C6.02838 18.1872 4.76739 16.7115 3.62344 15.147C2.51477 13.608 1.62243 12.069 0.97346 10.5435C0.324487 9.0045 0 7.533 0 6.129C0 5.211 0.162243 4.3335 0.48673 3.5235C0.811217 2.7 1.32499 1.944 2.04156 1.269C2.90686 0.4185 3.85328 0 4.85378 0C5.23235 0 5.61092 0.0810001 5.94892 0.243C6.30045 0.405 6.61142 0.648 6.85478 0.999L9.99149 5.4135C10.2349 5.751 10.4106 6.0615 10.5323 6.3585C10.654 6.642 10.7216 6.9255 10.7216 7.182C10.7216 7.506 10.6269 7.83 10.4377 8.1405C10.2619 8.451 10.005 8.775 9.68052 9.099L8.65298 10.1655C8.50426 10.314 8.43666 10.4895 8.43666 10.7055C8.43666 10.8135 8.45018 10.908 8.47722 11.016C8.51778 11.124 8.55834 11.205 8.58538 11.286C8.82874 11.7315 9.24787 12.312 9.84276 13.014C10.4512 13.716 11.1002 14.4315 11.8032 15.147C12.5333 15.8625 13.2364 16.524 13.9529 17.1315C14.656 17.7255 15.2374 18.1305 15.697 18.3735C15.7646 18.4005 15.8458 18.441 15.9404 18.4815C16.0486 18.522 16.1567 18.5355 16.2784 18.5355C16.5083 18.5355 16.684 18.4545 16.8328 18.306L17.8603 17.2935C18.1983 16.956 18.5228 16.6995 18.8338 16.5375C19.1447 16.3485 19.4557 16.254 19.7937 16.254C20.0506 16.254 20.321 16.308 20.6184 16.4295C20.9159 16.551 21.2268 16.7265 21.5648 16.956L26.0401 20.1285C26.3916 20.3715 26.635 20.655 26.7837 20.9925C26.9189 21.33 27 21.6675 27 22.0455Z" fill="url(#paint0_linear_1083_7887)"/>
<defs>
<linearGradient id="paint0_linear_1083_7887" x1="13.5" y1="0" x2="13.5" y2="27" gradientUnits="userSpaceOnUse">
<stop stop-color="#4C0497"/>
<stop offset="1" stop-color="#4C0497" stop-opacity="0.5"/>
</linearGradient>
</defs>
</svg>
