<svg width="17" height="20" viewBox="0 0 17 20" fill="none" xmlns="http://www.w3.org/2000/svg">
  <path fill-rule="evenodd" clip-rule="evenodd" d="M6.13651 16.0962C6.50018 16.0962 6.79499 16.391 6.79499 16.7547C6.79499 16.9067 6.8335 17.0639 6.9169 17.2189C7.0009 17.3751 7.13084 17.5294 7.30964 17.6672C7.48858 17.8049 7.70939 17.9205 7.96233 18.0011C8.21519 18.0818 8.49 18.1244 8.77007 18.1244C9.05014 18.1244 9.32495 18.0818 9.57772 18.0011C9.83075 17.9205 10.0516 17.8049 10.2305 17.6672C10.4093 17.5294 10.5392 17.3751 10.6232 17.2189C10.7066 17.0639 10.7452 16.9067 10.7452 16.7547C10.7452 16.391 11.04 16.0962 11.4036 16.0962C11.7673 16.0962 12.0621 16.391 12.0621 16.7547C12.0621 17.1353 11.9644 17.5056 11.7831 17.8428C11.6024 18.1787 11.3444 18.4716 11.034 18.7105C10.7239 18.9494 10.364 19.1327 9.97799 19.2559C9.59177 19.379 9.18166 19.4414 8.77007 19.4414C8.35847 19.4414 7.94837 19.379 7.56215 19.2559C7.17607 19.1327 6.81623 18.9494 6.50607 18.7105C6.19578 18.4716 5.93774 18.1787 5.75705 17.8428C5.57575 17.5056 5.47803 17.1353 5.47803 16.7547C5.47803 16.391 5.77283 16.0962 6.13651 16.0962Z" fill="#4C0497"/>
  <path d="M14.2612 9.2278L14.3108 9.22186L14.2612 9.2278C14.3577 10.0341 14.5808 10.8221 14.9241 11.5622L15.1564 12.0633C15.848 13.5548 14.9473 15.2979 13.3307 15.5968L13.1901 15.6227C10.2681 16.1628 7.27185 16.1628 4.34991 15.6227C2.73429 15.3242 1.87956 13.5368 2.66136 12.0917L2.61739 12.0679L2.66136 12.0917L2.86014 11.7243C3.4589 10.6176 3.77245 9.37907 3.77245 8.12073V6.96067C3.77245 5.27707 4.72534 3.73852 6.23262 2.98843C7.59041 2.31275 9.14485 2.18708 10.578 2.61608C10.9528 2.7283 11.3477 2.51539 11.4599 2.14054C11.5722 1.7657 11.3592 1.37086 10.9844 1.25864C9.20899 0.727188 7.2834 0.882793 5.60135 1.71987C3.6127 2.70949 2.35549 4.73939 2.35549 6.96067V8.12073C2.35549 9.14357 2.1006 10.1503 1.61388 11.05L1.4151 11.4174C0.175518 13.7086 1.53073 16.5427 4.09236 17.0161C7.1846 17.5877 10.3554 17.5877 13.4477 17.0161L13.5883 16.9901C16.115 16.5231 17.5229 13.7983 16.4418 11.4672C16.4418 11.4672 16.4418 11.4672 16.4418 11.4672L16.2095 10.9661L16.2095 10.9661C15.9292 10.3616 15.747 9.718 15.6681 9.05946C15.6217 8.67093 15.269 8.39368 14.8805 8.44016C14.492 8.48663 14.2147 8.83927 14.2612 9.2278Z" fill="#4C0497" stroke="#4C0497" stroke-width="0.1"/>
  <path fill-rule="evenodd" clip-rule="evenodd" d="M14.1466 3.32783C13.2981 3.32783 12.6102 4.01572 12.6102 4.86429C12.6102 5.71285 13.2981 6.40075 14.1466 6.40075C14.9952 6.40075 15.6831 5.71285 15.6831 4.86429C15.6831 4.01572 14.9952 3.32783 14.1466 3.32783ZM11.2932 4.86429C11.2932 3.28838 12.5708 2.01086 14.1466 2.01086C15.7226 2.01086 17.0001 3.28838 17.0001 4.86429C17.0001 6.44018 15.7226 7.71771 14.1466 7.71771C12.5708 7.71771 11.2932 6.44018 11.2932 4.86429Z" fill="#F05A35"/>
</svg>