

<svg width="12" height="11" viewBox="0 0 12 11" fill="none" xmlns="http://www.w3.org/2000/svg">
<path d="M9.44788 1.2727C9.41558 1.17315 9.34496 1.09054 9.25178 1.04302C9.15843 0.995456 9.05019 0.986984 8.95059 1.01934L7.29964 1.55584C7.09237 1.62319 6.97888 1.84582 7.04628 2.05308L7.12879 2.30712L2.92927 5.39187L1.27269 5.9301C1.17313 5.96246 1.09052 6.03302 1.04301 6.12626C0.995493 6.2195 0.986969 6.32784 1.01933 6.4274L2.02586 9.52462C2.08006 9.69136 2.23476 9.79739 2.40109 9.79739C2.44155 9.79739 2.48264 9.79113 2.52316 9.77797L4.17948 9.23974L5.03047 9.24421C5.20138 10.0512 5.91909 10.6586 6.77614 10.6586C7.62666 10.6586 8.33964 10.0603 8.51754 9.26258L9.39032 9.26715L9.47282 9.52125C9.50513 9.6208 9.57569 9.70341 9.66899 9.75093C9.72497 9.77945 9.78643 9.79392 9.84815 9.79392C9.88919 9.79392 9.93039 9.7875 9.97007 9.7746L11.6211 9.23816C11.8283 9.17081 11.9418 8.94818 11.8745 8.74092L9.44788 1.2727ZM2.65449 8.90535L1.89195 6.55873L2.85823 6.24476L3.62067 8.59138L2.65449 8.90535ZM6.77608 9.86932C6.35977 9.86932 6.00291 9.61217 5.85458 9.24858L7.69401 9.25826C7.54337 9.61686 7.18877 9.86932 6.77608 9.86932ZM4.4051 8.45162L3.99005 7.17421L3.575 5.8968L7.38556 3.09782L8.55416 6.69423L9.13328 8.47656L4.4051 8.45162ZM10.1015 8.90204L10.053 8.75297C10.0529 8.75271 10.0529 8.75239 10.0528 8.75207L9.01015 5.54325L7.91885 2.18447L8.8192 1.89186L11.0018 8.60937L10.1015 8.90204Z" fill="#707070" fill-opacity="0.7"/>
<path d="M9.27448 0.998473L9.27449 0.998479C9.37947 1.05201 9.45903 1.14508 9.49544 1.25727M9.27448 0.998473L9.49544 1.25727M9.27448 0.998473C9.1693 0.944878 9.04734 0.935338 8.93514 0.971791L8.93514 0.971792M9.27448 0.998473L8.93514 0.971792M9.49544 1.25727L11.922 8.72547C11.9979 8.95901 11.87 9.20983 11.6365 9.28572L9.98552 9.82216C9.94081 9.83668 9.8944 9.84392 9.84815 9.84392C9.77862 9.84392 9.70938 9.82761 9.64629 9.79548C9.54118 9.74195 9.46167 9.64886 9.42527 9.53668M9.49544 1.25727L9.42527 9.53668M9.42527 9.53668L9.47282 9.52125L9.42527 9.53669L9.42527 9.53668ZM9.42527 9.53668L9.35392 9.31696L8.55711 9.31279C8.3599 10.113 7.63661 10.7086 6.77614 10.7086C5.90896 10.7086 5.18075 10.1038 4.99037 9.294L4.18727 9.28978M9.42527 9.53668L4.18727 9.28978M8.93514 0.971792L7.28418 1.50829C7.05068 1.58417 6.92279 1.83499 6.99872 2.06853C6.99873 2.06853 6.99873 2.06854 6.99873 2.06855L7.07007 2.28821L2.90616 5.34681L1.25724 5.88255L1.25723 5.88255M8.93514 0.971792L1.25723 5.88255M1.25723 5.88255C1.14507 5.91901 1.05199 5.99851 0.998458 6.10356C0.944921 6.20862 0.935318 6.33069 0.971778 6.44286L1.97831 9.54007C2.0394 9.72801 2.21373 9.84739 2.40109 9.84739C2.44673 9.84739 2.49304 9.84032 2.5386 9.82553L2.53861 9.82553M1.25723 5.88255L2.53861 9.82553M2.53861 9.82553L4.18727 9.28978M2.53861 9.82553L4.18727 9.28978M10.1335 8.83903L10.9388 8.57728L8.7871 1.95487L7.98185 2.21657L9.0577 5.5278L10.1002 8.73618L10.1335 8.83903ZM10.1335 8.83903L10.1012 8.73956C10.1012 8.7395 10.1012 8.73943 10.1011 8.73937C10.1009 8.73855 10.1007 8.73763 10.1003 8.73662L10.1335 8.83903ZM8.51754 9.26258L9.39032 9.26715L5.03047 9.24421C5.20138 10.0512 5.91909 10.6586 6.77614 10.6586C7.62666 10.6586 8.33964 10.0603 8.51754 9.26258ZM2.68659 8.84235L1.95496 6.59084L2.82613 6.30776L3.55767 8.55928L2.68659 8.84235ZM6.77608 9.81932C6.40787 9.81932 6.08839 9.60741 5.93247 9.29899L7.61561 9.30785C7.45808 9.61154 7.14087 9.81932 6.77608 9.81932ZM4.44149 8.40182L4.0376 7.15876L3.63372 5.91571L7.35939 3.17908L8.50661 6.70968L9.06434 8.4262L4.44149 8.40182Z" stroke="#707070" stroke-opacity="0.7" stroke-width="0.1"/>
</svg>

