<svg width="23" height="23" viewBox="0 0 23 23" fill="none" xmlns="http://www.w3.org/2000/svg">
    <path d="M15.0521 10.9472L16.0631 9.93628C16.1228 9.94098 16.183 9.94335 16.2436 9.94335C16.8461 9.94335 17.4125 9.7087 17.8386 9.28266L18.8012 8.32002C19.6807 7.44052 19.6807 6.00947 18.8013 5.13004L14.3319 0.660683C13.9058 0.234648 13.3394 0 12.7368 0C12.1343 0 11.5679 0.234609 11.1419 0.660645L10.1792 1.62329C9.69393 2.10865 9.47643 2.76192 9.52671 3.39777L3.39779 9.5267C3.33804 9.52197 3.27783 9.5196 3.21726 9.5196C2.61474 9.5196 2.04829 9.75425 1.62226 10.1803L0.659612 11.1429C-0.21989 12.0225 -0.219851 13.4535 0.659612 14.3329L5.12897 18.8023C5.55497 19.2283 6.12145 19.4629 6.72394 19.4629C7.32643 19.4629 7.89291 19.2283 8.31895 18.8023L9.28159 17.8397C9.70763 17.4136 9.94227 16.8471 9.94227 16.2446C9.94227 16.184 9.93991 16.1238 9.93521 16.0641L10.9462 15.0531L18.1936 22.3005C18.6196 22.7266 19.1861 22.9612 19.7886 22.9612C20.3911 22.9612 20.9576 22.7266 21.3836 22.3005L22.2994 21.3847C23.1789 20.5051 23.1789 19.0741 22.2994 18.1947L15.0521 10.9472ZM9.78592 13.8629L7.96511 15.6837L8.10633 15.8249C8.33815 16.0568 8.33815 16.4326 8.10633 16.6644L7.14369 17.627C7.0278 17.7429 6.87587 17.8009 6.72394 17.8009C6.57201 17.8009 6.42012 17.7429 6.30423 17.627L1.83487 13.1577C1.60305 12.9259 1.60305 12.55 1.83487 12.3182L2.79751 11.3556C2.91344 11.2397 3.06533 11.1817 3.21726 11.1817C3.36919 11.1817 3.52109 11.2397 3.63701 11.3556L3.77824 11.4968L11.4958 3.77931L11.3545 3.63805C11.1227 3.40623 11.1227 3.0304 11.3545 2.79858L12.3171 1.83598C12.433 1.72009 12.585 1.66213 12.7369 1.66213C12.8888 1.66213 13.0407 1.72009 13.1566 1.83598L17.6259 6.30534C17.8578 6.53715 17.8578 6.91299 17.6259 7.1448L16.6633 8.10745C16.5474 8.22333 16.3955 8.2813 16.2436 8.2813C16.0916 8.2813 15.9398 8.22333 15.8238 8.10745L15.6826 7.96618L13.8618 9.78699L12.6396 11.0092L11.008 12.6407L9.78592 13.8629ZM21.1242 20.2094L20.2084 21.1253C20.0925 21.2412 19.9406 21.2991 19.7887 21.2991C19.6367 21.2991 19.4848 21.2412 19.3689 21.1253L12.1215 13.8779L13.8768 12.1225L21.1242 19.37C21.356 19.6018 21.356 19.9776 21.1242 20.2094Z" fill="#707070" fill-opacity="0.3"/>
</svg>


