<svg width="15" height="15" viewBox="0 0 15 15" fill="none" xmlns="http://www.w3.org/2000/svg">
    <path d="M1 10C1 8.1144 1 7.1716 1.57114 6.5858C2.14228 6 3.06152 6 4.9 6H10.1C11.9385 6 12.8577 6 13.4288 6.5858C14 7.1716 14 8.1144 14 10C14 11.8856 14 12.8284 13.4288 13.4142C12.8577 14 11.9385 14 10.1 14H4.9C3.06152 14 2.14228 14 1.57114 13.4142C1 12.8284 1 11.8856 1 10Z" stroke="#4C0497"/>
    <path d="M3.5 6V4.75C3.5 2.67893 5.29086 1 7.5 1C9.70913 1 11.5 2.67893 11.5 4.75V6" stroke="#4C0497" stroke-linecap="round"/>
    <path d="M5 10H5.00562M7.49438 10H7.5M9.99438 10H10" stroke="#4C0497" stroke-width="1.5" stroke-linecap="round" stroke-linejoin="round"/>
</svg>