<svg width="13" height="13" viewBox="0 0 13 13" fill="none" xmlns="http://www.w3.org/2000/svg">
    <path d="M11.9005 9.92867C11.9005 10.1237 11.8571 10.3241 11.765 10.5191C11.673 10.7141 11.5538 10.8983 11.3967 11.0716C11.1313 11.3641 10.8388 11.5753 10.5084 11.7108C10.1834 11.8462 9.83129 11.9166 9.45212 11.9166C8.89962 11.9166 8.30921 11.7866 7.68629 11.5212C7.06337 11.2558 6.44046 10.8983 5.82296 10.4487C5.1936 9.98831 4.59971 9.48132 4.04629 8.932C3.49854 8.38059 2.99334 7.78848 2.53504 7.16075C2.09087 6.54325 1.73337 5.92575 1.47337 5.31367C1.21337 4.69617 1.08337 4.10575 1.08337 3.54242C1.08337 3.17409 1.14837 2.822 1.27837 2.497C1.40837 2.16659 1.61421 1.86325 1.90129 1.59242C2.24796 1.25117 2.62712 1.08325 3.02796 1.08325C3.17962 1.08325 3.33129 1.11575 3.46671 1.18075C3.60754 1.24575 3.73212 1.34325 3.82962 1.48409L5.08629 3.25534C5.18379 3.39075 5.25421 3.51534 5.30296 3.6345C5.35171 3.74825 5.37879 3.862 5.37879 3.96492C5.37879 4.09492 5.34087 4.22492 5.26504 4.3495C5.19462 4.47408 5.09171 4.60408 4.96171 4.73408L4.55004 5.162C4.49046 5.22158 4.46337 5.292 4.46337 5.37867C4.46337 5.422 4.46879 5.45992 4.47962 5.50325C4.49587 5.54658 4.51212 5.57908 4.52296 5.61158C4.62046 5.79033 4.78837 6.02325 5.02671 6.30492C5.27046 6.58659 5.53046 6.87367 5.81212 7.16075C6.10462 7.44783 6.38629 7.71325 6.67337 7.957C6.95504 8.19533 7.18796 8.35783 7.37212 8.45533C7.39921 8.46617 7.43171 8.48242 7.46962 8.49867C7.51296 8.51492 7.55629 8.52033 7.60504 8.52033C7.69712 8.52033 7.76754 8.48783 7.82712 8.42825L8.23879 8.022C8.37421 7.88659 8.50421 7.78367 8.62879 7.71867C8.75337 7.64283 8.87796 7.60492 9.01337 7.60492C9.11629 7.60492 9.22462 7.62658 9.34379 7.67533C9.46296 7.72408 9.58754 7.7945 9.72296 7.88659L11.5159 9.1595C11.6567 9.257 11.7542 9.37075 11.8138 9.50617C11.868 9.64158 11.9005 9.777 11.9005 9.92867Z" stroke="#4C0497" stroke-miterlimit="10"/>
</svg>