<svg width="18" height="25" viewBox="0 0 18 25" fill="none" xmlns="http://www.w3.org/2000/svg">
    <path d="M8.99432 11.4047C8.87702 11.3929 8.73625 11.3929 8.60722 11.4047C5.81539 11.3108 3.59839 9.02344 3.59839 6.2082C3.59839 3.33431 5.92096 1 8.80664 1C11.6805 1 14.0148 3.33431 14.0148 6.2082C14.0031 9.02344 11.7861 11.3108 8.99432 11.4047Z" stroke="#707070" stroke-opacity="0.3" stroke-width="1.5" stroke-linecap="round" stroke-linejoin="round"/>
    <path d="M3.12903 15.7331C0.290324 17.6334 0.290324 20.7302 3.12903 22.6188C6.35483 24.7771 11.6452 24.7771 14.871 22.6188C17.7097 20.7185 17.7097 17.6217 14.871 15.7331C11.6569 13.5865 6.36656 13.5865 3.12903 15.7331Z" stroke="#707070" stroke-opacity="0.3" stroke-width="1.5" stroke-linecap="round" stroke-linejoin="round"/>
</svg>