<svg width="16" height="16" viewBox="0 0 16 16" fill="none" xmlns="http://www.w3.org/2000/svg">
  <path fill-rule="evenodd" clip-rule="evenodd" d="M6.46721 7.14246C6.81073 6.91911 7.27334 6.87838 7.67722 7.12643L10.2031 8.67732C10.6055 8.92448 10.7827 9.35173 10.7827 9.73966C10.7827 10.1276 10.6055 10.5548 10.2031 10.8019L7.67722 12.3529C7.27334 12.6009 6.81073 12.5602 6.46721 12.3368C6.12959 12.1172 5.91309 11.7306 5.91309 11.2905V8.1887C5.91309 7.74868 6.12959 7.36202 6.46721 7.14246ZM7.08395 8.07287C7.07017 8.08185 7.03683 8.11472 7.03683 8.1887V11.2905C7.03683 11.3645 7.07017 11.3974 7.08395 11.4064L7.08493 11.407L9.61096 9.85593C9.62684 9.84621 9.6589 9.8126 9.6589 9.73966C9.6589 9.66665 9.62684 9.63303 9.61096 9.62331L7.08515 8.07243L7.08395 8.07287Z" fill="url(#paint0_linear_1083_4737)" fill-opacity="0.7"/>
  <path fill-rule="evenodd" clip-rule="evenodd" d="M5.54369 5.41093e-06C5.38009 -3.92402e-05 5.25465 -7.64617e-05 5.14499 0.0116891C4.13724 0.119842 3.36591 0.947376 3.3191 1.94982C2.43287 2.21439 1.80136 3.03442 1.78997 3.97492C1.34284 4.10913 0.957177 4.32079 0.641456 4.66182C0.156255 5.18591 0.00589246 5.8318 0.000169679 6.58627C-0.00533729 7.31163 0.123913 8.22824 0.284419 9.36655L0.611109 11.6836C0.736586 12.5738 0.838517 13.2968 0.997125 13.8634C1.16306 14.4563 1.40764 14.944 1.86048 15.319C2.30974 15.6909 2.84273 15.8513 3.47272 15.9269C4.08186 16 4.84817 16 5.80228 16H10.1976C11.1518 16 11.9181 16 12.5272 15.9269C13.1573 15.8513 13.6903 15.6909 14.1395 15.319C14.5924 14.944 14.8369 14.4563 15.0028 13.8634C15.1614 13.2968 15.2634 12.5738 15.3889 11.6836L15.7156 9.36655C15.8761 8.22824 16.0053 7.31163 15.9998 6.58627C15.9941 5.8318 15.8437 5.18591 15.3585 4.66182C15.0427 4.3207 14.6569 4.10903 14.2097 3.97483C14.1982 3.03442 13.5669 2.21448 12.6807 1.94986C12.6339 0.947399 11.8625 0.119842 10.8548 0.0116891C10.7451 -7.64617e-05 10.6197 -3.92402e-05 10.4561 5.41093e-06H5.54369ZM13.0683 3.77883C12.9662 3.32664 12.5623 2.97675 12.0645 2.97675H3.93515C3.43736 2.97675 3.03343 3.32665 2.93136 3.77886C3.62032 3.72092 4.46491 3.72093 5.48162 3.72094H10.5183C11.5349 3.72093 12.3794 3.72092 13.0683 3.77883ZM11.548 1.86047C11.4687 1.47076 11.1451 1.16554 10.7357 1.1216C10.6938 1.1171 10.6341 1.11628 10.4251 1.11628H5.57468C5.36567 1.11628 5.30599 1.1171 5.2641 1.1216C4.85465 1.16554 4.53106 1.47076 4.45179 1.86047H11.548ZM1.46059 5.42017C1.686 5.17669 2.02497 5.01519 2.68362 4.92759C3.35423 4.83839 4.25195 4.83721 5.52363 4.83721H10.4763C11.748 4.83721 12.6457 4.83839 13.3164 4.92759C13.975 5.01519 14.314 5.17669 14.5394 5.42017C14.7596 5.65799 14.8789 5.98163 14.8836 6.59475C14.8884 7.22738 14.7722 8.06162 14.6037 9.25641L14.289 11.489C14.1567 12.4272 14.0641 13.0761 13.9279 13.5626C13.7967 14.031 13.6424 14.2813 13.4276 14.4592C13.2092 14.64 12.9159 14.756 12.3943 14.8186C11.8594 14.8828 11.1602 14.8837 10.1615 14.8837H5.8384C4.83978 14.8837 4.14059 14.8828 3.60572 14.8186C3.08403 14.756 2.7908 14.64 2.57238 14.4592C2.35754 14.2813 2.20322 14.031 2.07209 13.5626C1.93592 13.0761 1.84327 12.4272 1.71098 11.489L1.39621 9.25641C1.22776 8.06162 1.11161 7.22738 1.11641 6.59475C1.12107 5.98163 1.24041 5.65799 1.46059 5.42017Z" fill="url(#paint1_linear_1083_4737)" fill-opacity="0.7"/>
  <defs>
    <linearGradient id="paint0_linear_1083_4737" x1="8.34787" y1="6.95703" x2="8.34787" y2="12.5222" gradientUnits="userSpaceOnUse">
      <stop stop-color="#4C0497"/>
      <stop offset="1" stop-color="#4C0497" stop-opacity="0.5"/>
    </linearGradient>
    <linearGradient id="paint1_linear_1083_4737" x1="8" y1="0" x2="8" y2="16" gradientUnits="userSpaceOnUse">
      <stop stop-color="#4C0497"/>
      <stop offset="1" stop-color="#4C0497" stop-opacity="0.5"/>
    </linearGradient>
  </defs>
</svg>