<svg width="16" height="17" viewBox="0 0 16 17" fill="none" xmlns="http://www.w3.org/2000/svg">
  <path d="M7.99984 10.9167C9.2885 10.9167 10.3332 9.872 10.3332 8.58333C10.3332 7.29467 9.2885 6.25 7.99984 6.25C6.71117 6.25 5.6665 7.29467 5.6665 8.58333C5.6665 9.872 6.71117 10.9167 7.99984 10.9167Z" stroke="url(#paint0_linear_0_1)" stroke-opacity="0.7" stroke-width="1.5"/>
  <path d="M9.31073 1.11545C9.03781 1 8.6919 1 8.00001 1C7.30811 1 6.96221 1 6.68928 1.11545C6.32546 1.26938 6.03638 1.56464 5.88567 1.93626C5.81688 2.10591 5.78995 2.3032 5.77941 2.59098C5.76393 3.01389 5.55159 3.40535 5.19275 3.61696C4.83392 3.82855 4.39584 3.82065 4.02951 3.62289C3.78024 3.48832 3.5995 3.41349 3.42126 3.38952C3.0308 3.33702 2.63592 3.44509 2.32348 3.68996C2.08915 3.87361 1.91618 4.17962 1.57024 4.79161C1.2243 5.40362 1.05133 5.70961 1.01278 6.00872C0.961378 6.40752 1.06718 6.81085 1.30693 7.12999C1.41635 7.27566 1.57014 7.39806 1.80884 7.55124C2.15973 7.77647 2.3855 8.16011 2.38548 8.58333C2.38545 9.00656 2.15969 9.39012 1.80883 9.61527C1.57011 9.76853 1.41629 9.891 1.30686 10.0367C1.06711 10.3558 0.961303 10.7591 1.01271 11.1579C1.05126 11.457 1.22423 11.763 1.57017 12.375C1.91611 12.987 2.08908 13.293 2.32341 13.4766C2.63585 13.7215 3.03073 13.8296 3.42118 13.7771C3.59941 13.7531 3.78014 13.6783 4.0294 13.5437C4.39575 13.346 4.83386 13.3381 5.19272 13.5497C5.55158 13.7613 5.76393 14.1528 5.77941 14.5758C5.78996 14.8635 5.81688 15.0608 5.88567 15.2304C6.03638 15.602 6.32546 15.8973 6.68928 16.0512C6.96221 16.1667 7.30811 16.1667 8.00001 16.1667C8.6919 16.1667 9.03781 16.1667 9.31073 16.0512C9.67453 15.8973 9.96364 15.602 10.1143 15.2304C10.1831 15.0608 10.2101 14.8635 10.2206 14.5757C10.2361 14.1528 10.4484 13.7613 10.8072 13.5497C11.166 13.338 11.6042 13.346 11.9706 13.5437C12.2198 13.6783 12.4005 13.753 12.5787 13.777C12.9692 13.8296 13.3641 13.7215 13.6765 13.4766C13.9108 13.293 14.0838 12.987 14.4297 12.3749C14.7757 11.7629 14.9487 11.457 14.9872 11.1579C15.0386 10.7591 14.9328 10.3557 14.6931 10.0366C14.5836 9.89093 14.4298 9.76846 14.1911 9.61527C13.8403 9.39012 13.6145 9.00648 13.6145 8.58326C13.6145 8.16003 13.8403 7.77654 14.1911 7.55139C14.4299 7.39813 14.5837 7.27574 14.6931 7.12999C14.9329 6.8109 15.0387 6.40758 14.9873 6.00877C14.9488 5.70967 14.7758 5.40366 14.4298 4.79167C14.0839 4.17967 13.9109 3.87367 13.6766 3.69001C13.3642 3.44514 12.9692 3.33707 12.5788 3.38958C12.4006 3.41354 12.2199 3.48836 11.9706 3.62292C11.6042 3.82069 11.1661 3.8286 10.8073 3.61698C10.4484 3.40537 10.2361 3.01388 10.2206 2.59094C10.2101 2.30318 10.1831 2.1059 10.1143 1.93626C9.96364 1.56464 9.67453 1.26938 9.31073 1.11545Z" stroke="url(#paint1_linear_0_1)" stroke-opacity="0.7" stroke-width="1.5"/>
  <defs>
    <linearGradient id="paint0_linear_0_1" x1="7.99984" y1="6.25" x2="7.99984" y2="10.9167" gradientUnits="userSpaceOnUse">
      <stop stop-color="#4C0497"/>
      <stop offset="0.9999" stop-color="#4C0497" stop-opacity="0.5"/>
      <stop offset="1" stop-color="#4C0497" stop-opacity="0.5"/>
    </linearGradient>
    <linearGradient id="paint1_linear_0_1" x1="8" y1="1" x2="8" y2="16.1667" gradientUnits="userSpaceOnUse">
      <stop stop-color="#4C0497"/>
      <stop offset="0.9999" stop-color="#4C0497" stop-opacity="0.5"/>
      <stop offset="1" stop-color="#4C0497" stop-opacity="0.5"/>
    </linearGradient>
  </defs>
</svg>