<svg width="11" height="12" viewBox="0 0 11 12" fill="none" xmlns="http://www.w3.org/2000/svg">
    <path d="M6.40455 2.66667C6.40455 1.71571 7.22357 0.95 8.22727 0.95C9.23097 0.95 10.05 1.71571 10.05 2.66667C10.05 3.61762 9.23097 4.38333 8.22727 4.38333C7.65483 4.38333 7.14327 4.1347 6.80882 3.7449L4.43952 5.30421C4.53974 5.51687 4.59545 5.75232 4.59545 6C4.59545 6.24768 4.53974 6.48313 4.43952 6.69579L6.80882 8.2551C7.14327 7.86531 7.65483 7.61667 8.22727 7.61667C9.23097 7.61667 10.05 8.3824 10.05 9.33333C10.05 10.2843 9.23097 11.05 8.22727 11.05C7.22357 11.05 6.40455 10.2843 6.40455 9.33333C6.40455 9.24124 6.41224 9.15078 6.42711 9.06256L3.87431 7.38251L6.40455 2.66667ZM6.40455 2.66667C6.40455 2.75876 6.41224 2.84921 6.42711 2.93745M6.40455 2.66667L6.42711 2.93745M6.42711 2.93745L3.87429 4.6175C3.87072 4.61984 3.8672 4.62223 3.86373 4.62466C3.55936 4.41017 3.18159 4.28333 2.77273 4.28333C1.76901 4.28333 0.95 5.04906 0.95 6C0.95 6.95094 1.76901 7.71667 2.77273 7.71667C3.18159 7.71667 3.55936 7.58981 3.86373 7.37534C3.8672 7.37776 3.87072 7.38014 3.87428 7.38248L6.42711 2.93745ZM7.32273 2.66667C7.32273 2.2015 7.72475 1.81923 8.22727 1.81923C8.72979 1.81923 9.13182 2.2015 9.13182 2.66667C9.13182 3.13183 8.72979 3.5141 8.22727 3.5141C7.72475 3.5141 7.32273 3.13183 7.32273 2.66667ZM1.86818 6C1.86818 5.53483 2.27021 5.15256 2.77273 5.15256C3.27525 5.15256 3.67727 5.53483 3.67727 6C3.67727 6.46517 3.27525 6.84744 2.77273 6.84744C2.27021 6.84744 1.86818 6.46517 1.86818 6ZM7.32273 9.33333C7.32273 8.86817 7.72475 8.4859 8.22727 8.4859C8.72979 8.4859 9.13182 8.86817 9.13182 9.33333C9.13182 9.7985 8.72979 10.1808 8.22727 10.1808C7.72475 10.1808 7.32273 9.7985 7.32273 9.33333Z" fill="#F05A35" stroke="#F05A35" stroke-width="0.1"/>
</svg>
