<svg width="12" height="17" viewBox="0 0 12 17" fill="none" xmlns="http://www.w3.org/2000/svg">
<path d="M6.16037 7.71631C6.08465 7.70873 5.99378 7.70873 5.91049 7.71631C4.10834 7.65573 2.67725 6.1792 2.67725 4.36194C2.67725 2.50682 4.17649 1 6.03922 1C7.89434 1 9.40115 2.50682 9.40115 4.36194C9.39358 6.1792 7.96249 7.65573 6.16037 7.71631Z" stroke="#4C0497" stroke-linecap="round" stroke-linejoin="round"/>
<path d="M2.37431 10.5104C0.541898 11.7371 0.541898 13.7361 2.37431 14.9552C4.45659 16.3484 7.87155 16.3484 9.95384 14.9552C11.7862 13.7285 11.7862 11.7295 9.95384 10.5104C7.87913 9.12478 4.46416 9.12478 2.37431 10.5104Z" stroke="#4C0497" stroke-linecap="round" stroke-linejoin="round"/>
</svg>
