<svg xmlns="http://www.w3.org/2000/svg" width="26.593" height="23.762" viewBox="0 0 26.593 23.762">
  <g id="Group_46800" data-name="Group 46800" transform="translate(0.822 0.115)">
    <path id="Path_42085" data-name="Path 42085" d="M4.969,1.831,3.731,10.677.9,13.154V17.4l1.415,1.769V22l1.415,1.946H6.562l.885-1.238V19.169H19.123V22l.885,2.3,3.185-.354.708-.885V19.523l1.769-1.062V14.569L22.839,10.5,21.069,2.538,19.123,1.3H8.508Z" transform="translate(-0.9 -1.3)" fill="#fff" fill-rule="evenodd"/>
    <path id="Path_42086" data-name="Path 42086" d="M22.116,10.469,20.7,4.454A2.555,2.555,0,0,0,18.4,1.8H6.015c-1.238,0-2.3.885-2.477,2.654L2.3,10.469" transform="translate(0.178 -0.915)" fill="#fff" stroke="#6f62b1" stroke-linecap="round" stroke-linejoin="round" stroke-width="2" fill-rule="evenodd"/>
    <path id="Path_42087" data-name="Path 42087" d="M6.931,11.6v1.769a2.572,2.572,0,0,1-2.477,2.654h0A2.466,2.466,0,0,1,1.8,13.546V11.777h0m21.231,0v1.769a2.25,2.25,0,0,1-2.123,2.477h-.177a2.419,2.419,0,0,1-2.477-2.477V11.777h0" transform="translate(-0.207 6.623)" fill="#fff" stroke="#6f62b1" stroke-linecap="round" stroke-linejoin="round" stroke-width="2" fill-rule="evenodd"/>
    <path id="Path_42088" data-name="Path 42088" d="M21.877,15.292H4.539A3.538,3.538,0,0,1,1,11.754V10.338H1c0-.708,0-1.415.531-1.769L3.3,6.8H23.116l1.769,1.769a2.7,2.7,0,0,1,.708,1.769v1.415a3.805,3.805,0,0,1-3.539,3.538Z" transform="translate(-0.822 2.931)" fill="none" stroke="#6f62b1" stroke-linecap="round" stroke-linejoin="round" stroke-width="2" fill-rule="evenodd"/>
    <path id="Path_42089" data-name="Path 42089" d="M2,10.069a1.769,1.769,0,1,1,1.769,1.769A1.769,1.769,0,0,1,2,10.069Zm17.516,0a1.769,1.769,0,1,1,1.769,1.769A1.769,1.769,0,0,1,19.516,10.069Z" transform="translate(-0.054 4.085)" fill="#6f62b1"/>
    <path id="Path_42090" data-name="Path 42090" d="M12.846,7.6A2.175,2.175,0,0,0,10.9,5.3,2.342,2.342,0,0,0,8.6,7.6" transform="translate(5.024 1.777)" fill="none" stroke="#6f62b1" stroke-linecap="round" stroke-linejoin="round" stroke-width="2" fill-rule="evenodd"/>
    <path id="Path_42091" data-name="Path 42091" d="M6,9.3h7.077" transform="translate(3.024 4.854)" fill="none" stroke="#6f62b1" stroke-linecap="round" stroke-width="1.4" fill-rule="evenodd"/>
  </g>
</svg>
